<svg width="374" height="408" viewBox="0 0 374 408" fill="none" xmlns="http://www.w3.org/2000/svg">
<path d="M363 345H324.917H181.491H38.317H0V0H363V345ZM34.5714 30.5817V115V307.41H181.491L328.429 307.251V168.916V30.5817H101.013H34.5714Z" fill="white"/>
<path d="M59.1474 31.1566C58.5148 31.3552 57.437 31.5317 56.7809 31.5537C55.6094 31.5758 54.8128 31.9287 54.8128 32.4361C54.8128 32.5685 54.3441 32.9214 53.7584 33.2082C52.212 33.9803 49.9861 35.9657 49.1192 37.3775C48.3694 38.5688 48.3225 38.6129 46.3778 39.2306C43.777 40.0468 40.4733 40.6865 37.5445 40.9071C34.9906 41.1277 34.1471 41.4365 33.6785 42.4072C33.3505 43.091 33.655 43.9955 34.3111 44.3484C34.5688 44.4808 35.0609 44.8117 35.4123 45.0764C35.7638 45.3411 37.3571 46.025 38.9269 46.5985C46.7995 49.4443 49.6815 50.7458 51.5793 52.3782C52.0948 52.8194 53.1023 54.0107 53.8052 55.0033C55.0939 56.8784 55.914 57.5402 58.7959 59.1065C59.8269 59.68 60.2018 60.055 60.7172 61.0257C62.0996 63.6067 62.8963 68.3275 62.7088 72.7174C62.3808 79.7324 60.4126 86.4827 54.9768 99.1892C53.5006 102.653 52.0011 106.337 51.6731 107.395C50.3844 111.366 49.166 117.521 48.4397 123.786C47.9476 127.999 48.0179 141.544 48.5568 145.294C49.6815 153.214 51.4153 158.993 54.2973 164.42C54.9299 165.611 56.2186 168.766 57.1558 171.413C59.7331 178.825 61.303 181.98 63.5757 184.274C64.7238 185.421 64.8176 185.487 65.3565 185.223C65.7313 185.046 65.9422 185.024 66.0125 185.178C66.2234 185.796 68.543 189.238 69.2928 190.054C70.0426 190.87 70.2534 190.98 70.8158 190.848C71.2609 190.738 71.4484 190.539 71.4484 190.208C71.4484 189.965 71.5421 189.613 71.6593 189.436C71.917 189.061 71.9873 189.304 73.9086 196.341C75.9002 203.709 77.0483 206.863 79.1101 210.702C81.0314 214.297 84.6163 218.93 85.9753 219.57C86.8422 219.967 87.2171 219.548 87.0765 218.379C87.0296 217.871 87.0531 217.496 87.1702 217.562C87.4982 217.739 89.8647 220.761 92.2078 223.916C96.3081 229.497 99.2838 231.857 102.189 231.747C103.478 231.703 103.595 231.747 105.844 233.159C110.109 235.828 113.74 237.262 117.138 237.637L118.497 237.769L118.661 237.063L118.825 236.357L123.558 236.556C131.29 236.843 138.764 236.776 140.803 236.357C143.52 235.806 143.848 235.629 143.848 234.879C143.848 234.372 143.708 234.195 143.216 234.041C142.63 233.843 142.724 233.776 144.903 232.673C147.551 231.35 149.331 230.225 151.276 228.725C153.033 227.357 153.713 226.916 154.088 226.916C154.322 226.916 154.392 227.6 154.392 229.761C154.392 236.335 156.196 240.946 161.749 248.623C164.772 252.792 166.271 255.351 166.81 257.182C166.974 257.822 167.068 259.079 166.998 260.491C166.927 262.432 166.834 262.962 166.248 264.042C165.1 266.248 162.148 267.925 156.688 269.381C147.222 271.962 134.828 273.219 110.202 274.124C103.431 274.366 102.447 274.565 99.8461 276.197C97.0813 277.918 95.4646 279.903 91.5283 286.411C90.0287 288.86 88.3652 291.507 87.8263 292.257C85.3426 295.698 82.8122 297.441 77.3529 299.493C73.604 300.882 72.6199 301.831 72.6199 304.103C72.6199 305.449 72.6668 305.559 73.5103 306.309C74.5178 307.214 75.5487 307.567 78.0558 307.875C80.1645 308.118 83.8197 307.831 85.6004 307.258C86.561 306.949 87.1936 306.883 88.1309 307.015C89.5601 307.192 91.5049 306.949 92.4655 306.464C94.1994 305.603 95.5349 303.86 96.8939 300.662C98.3231 297.353 98.9557 296.559 100.104 296.801C100.69 296.912 100.619 297.265 99.5181 299.669C98.2997 302.338 98.1122 303.706 98.8386 304.434C99.5415 305.14 100.244 305.228 102.47 304.986C104.743 304.721 106.383 304.081 107.274 303.133C107.906 302.449 108.937 300.287 108.937 299.625C108.937 299.471 109.265 298.301 109.663 297.044C110.812 293.36 113.084 289.897 114.771 289.279C115.263 289.08 117.372 288.529 119.504 288.022C121.613 287.492 124.729 286.698 126.393 286.213C135.414 283.676 145.043 282.418 158.961 281.955C163.554 281.801 171.403 282.132 174.308 282.595C177.706 283.124 178.807 283.19 180.634 282.948C185.414 282.308 188.46 279.396 188.46 275.447C188.484 273.33 187.945 271.896 186.351 269.668C184.735 267.44 184.36 266.756 183.376 264.042C182.415 261.461 181.525 257.866 180.939 254.27C180.353 250.674 180.377 240.968 180.939 237.835C181.173 236.644 181.384 235.607 181.454 235.563C181.501 235.519 184.453 236.026 187.991 236.688L194.458 237.902L198.395 239.666C202.87 241.674 203.713 241.961 209.688 243.35C216.249 244.85 217.631 245.645 220.419 249.571C224.215 254.91 227.987 257.358 237.57 260.8C239.82 261.594 242.397 262.609 243.264 263.05C247.599 265.168 262.805 280.234 269.693 289.235C273.231 293.845 274.426 295.632 277.918 301.588C282.252 308.934 282.885 309.353 289.937 309.64C294.366 309.839 295.584 310.015 302.52 311.626C310.205 313.39 313.907 313.589 316.484 312.376C317.702 311.802 318.124 311.361 321.123 307.699C324.732 303.287 325.552 302.427 328.41 299.934C329.98 298.566 330.355 298.125 330.496 297.419C330.73 296.228 330.168 295.213 328.902 294.617C327.988 294.176 327.66 294.154 324.755 294.264C320.561 294.397 318.733 294.97 314.563 297.353C310.884 299.471 309.853 299.713 309.221 298.61C308.143 296.801 303.527 296.095 298.982 297.066C296.896 297.507 296.498 297.551 295.608 297.287C294.155 296.89 293.054 295.676 292.28 293.625C290.617 289.235 287.993 284.889 284.689 281.095C281.057 276.925 276.98 273.286 266.39 264.748C253.925 254.689 249.824 250.586 245.42 243.681C243.076 240.019 241.905 238.541 239.867 236.644C236.586 233.578 233.587 232.276 228.034 231.548C222.762 230.842 219.576 229.695 216.108 227.291C214.421 226.122 212.734 224.71 207.907 220.408C205.845 218.577 203.502 216.548 202.682 215.864L201.159 214.606L202.214 214.121C202.776 213.834 204.065 212.842 205.049 211.893C206.033 210.922 207.087 210.062 207.392 209.952C207.72 209.841 208.727 209.886 209.922 210.04C211.024 210.194 213.343 210.437 215.077 210.591C220.161 210.989 224.192 211.474 226.324 211.937C229.627 212.665 232.041 213.9 232.791 215.246C233.072 215.776 233.283 215.908 233.775 215.842C234.267 215.798 234.478 215.599 234.688 215.003C235.11 213.834 235.04 209.863 234.548 208.121C234.337 207.282 234.196 206.621 234.267 206.621C234.337 206.621 234.782 206.974 235.274 207.437C236.118 208.209 236.165 208.209 236.703 207.878C237.149 207.613 237.242 207.393 237.172 206.907C236.938 205.54 236.094 203.554 235.134 202.01L234.103 200.378L236.047 198.547C237.102 197.554 238.32 196.23 238.765 195.613L239.538 194.488L240.171 195.061C240.944 195.767 241.882 197.378 242.491 199.032C243.053 200.576 243.334 200.885 244.061 200.885C244.482 200.885 244.717 200.687 244.998 200.047C245.185 199.606 245.373 199.209 245.42 199.164C245.443 199.12 246.193 199.584 247.036 200.201C251.722 203.488 257.369 205.231 265.007 205.76C267.866 205.959 268.709 206.091 269.084 206.4C270.139 207.282 273.208 209.069 275.645 210.216C280.425 212.467 284.314 213.481 288.18 213.525C291.085 213.525 291.835 213.371 292.023 212.665C292.14 212.224 291.999 211.915 291.343 211.209C288.25 208.01 287.102 204.459 286.985 197.797L286.915 195.039L287.618 194.973C289.937 194.797 290.312 194.686 290.523 194.135C290.687 193.738 290.664 193.451 290.406 193.076C290.055 192.569 290.055 192.569 291.226 192.414C292.163 192.304 292.468 192.149 292.655 191.752C292.89 191.289 292.749 191.046 291.484 189.635C290.687 188.73 289.609 187.142 289 185.995C288.016 184.076 287.641 182.95 285.017 174.038C284.572 172.538 283.892 170.729 283.494 169.979C282.674 168.391 282.674 168.391 283.213 168.545C283.494 168.634 283.822 168.523 284.08 168.237C284.502 167.817 284.455 167.729 282.908 165.214C280.846 161.817 277.519 157.162 275.411 154.67C271.263 149.817 265.523 145.228 260.813 143C260.157 142.691 259.595 142.316 259.595 142.206C259.595 141.985 260.556 141.522 261.54 141.235C261.797 141.147 261.938 140.882 261.938 140.463C261.938 139.823 261.891 139.801 259.782 139.338C254.253 138.125 247.599 137.904 243.147 138.809C242.631 138.897 242.538 138.853 242.631 138.522C242.702 138.279 242.561 137.948 242.327 137.75C241.952 137.441 241.741 137.419 240.382 137.706C239.538 137.882 237.805 138.037 236.516 138.037C233.517 138.059 231.642 137.529 227.917 135.544C224.824 133.889 223.231 133.294 221.403 133.051C220.302 132.919 219.927 132.72 218.873 131.816C217.444 130.58 216.249 130.183 213.367 129.941C211.656 129.808 211.563 129.764 211.914 129.411C212.336 128.97 212.359 128.551 211.961 128.066C211.68 127.713 211.516 127.735 209.688 128.11C207.228 128.617 203.924 128.639 197.856 128.198C190.709 127.691 187.734 127.183 181.244 125.396C171.215 122.639 170.489 122.484 167.162 122.484C165.03 122.506 164.233 122.595 162.593 123.102C157.016 124.757 156.524 124.823 150.76 124.977C144.856 125.132 144.481 125.22 142.091 126.764L141.037 127.448L135.484 127.514C129.72 127.558 128.314 127.735 125.338 128.705C122.995 129.477 119.411 131.419 118.567 132.367C118.098 132.897 117.817 132.786 118.075 132.147C118.333 131.507 118.239 131.286 117.606 130.955C116.903 130.602 113.787 133.205 103.9 142.427C94.504 151.184 92.7467 152.684 90.8722 153.567C87.3342 155.265 83.1636 155.155 79.321 153.28C77.7043 152.486 75.3847 150.655 74.4943 149.464L74.0257 148.868L74.8927 148.603C76.0642 148.25 76.2282 148.074 76.0407 147.434C75.9236 146.971 75.7362 146.883 74.6818 146.772C72.245 146.486 69.8551 144.853 68.3321 142.427C66.7857 139.912 65.9188 134.86 66.1297 129.323C66.4108 121.69 67.7229 116.197 73.5571 98.4171C79.1336 81.409 80.9611 74.2175 81.7578 66.2097C82.6716 56.8343 81.008 48.0104 77.0483 41.3483L75.9002 39.4291L76.4859 38.6129C77.5637 37.1128 77.142 36.2966 75.2441 36.2304C74.3069 36.2084 73.7211 35.9657 71.7998 34.8848C65.8954 31.5096 64.8176 31.0684 62.0996 30.914C60.8344 30.8257 59.9675 30.914 59.1474 31.1566Z" fill="white"/>
<path d="M5.63636 407V360.455H21.9091C25.1515 360.455 27.8258 361.015 29.9318 362.136C32.0379 363.242 33.6061 364.735 34.6364 366.614C35.6667 368.477 36.1818 370.545 36.1818 372.818C36.1818 374.818 35.8258 376.47 35.1136 377.773C34.4167 379.076 33.4924 380.106 32.3409 380.864C31.2045 381.621 29.9697 382.182 28.6364 382.545V383C30.0606 383.091 31.4924 383.591 32.9318 384.5C34.3712 385.409 35.5758 386.712 36.5455 388.409C37.5152 390.106 38 392.182 38 394.636C38 396.97 37.4697 399.068 36.4091 400.932C35.3485 402.795 33.6742 404.273 31.3864 405.364C29.0985 406.455 26.1212 407 22.4545 407H5.63636ZM11.2727 402H22.4545C26.1364 402 28.75 401.288 30.2955 399.864C31.8561 398.424 32.6364 396.682 32.6364 394.636C32.6364 393.061 32.2348 391.606 31.4318 390.273C30.6288 388.924 29.4848 387.848 28 387.045C26.5152 386.227 24.7576 385.818 22.7273 385.818H11.2727V402ZM11.2727 380.909H21.7273C23.4242 380.909 24.9545 380.576 26.3182 379.909C27.697 379.242 28.7879 378.303 29.5909 377.091C30.4091 375.879 30.8182 374.455 30.8182 372.818C30.8182 370.773 30.1061 369.038 28.6818 367.614C27.2576 366.174 25 365.455 21.9091 365.455H11.2727V380.909ZM52.8977 360.455V407H47.2614V360.455H52.8977ZM61.6534 365.455V360.455H96.5625V365.455H81.9261V407H76.2898V365.455H61.6534ZM105.261 360.455H111.989L127.807 399.091H128.352L144.17 360.455H150.898V407H145.625V371.636H145.17L130.625 407H125.534L110.989 371.636H110.534V407H105.261V360.455ZM164.108 407H158.199L175.29 360.455H181.108L198.199 407H192.29L178.381 367.818H178.017L164.108 407ZM166.29 388.818H190.108V393.818H166.29V388.818ZM205.449 407V360.455H221.176C224.828 360.455 227.813 361.114 230.131 362.432C232.464 363.735 234.191 365.5 235.312 367.727C236.434 369.955 236.994 372.439 236.994 375.182C236.994 377.924 236.434 380.417 235.312 382.659C234.206 384.902 232.494 386.689 230.176 388.023C227.858 389.341 224.888 390 221.267 390H209.994V385H221.085C223.585 385 225.593 384.568 227.108 383.705C228.623 382.841 229.722 381.674 230.403 380.205C231.1 378.72 231.449 377.045 231.449 375.182C231.449 373.318 231.1 371.652 230.403 370.182C229.722 368.712 228.616 367.561 227.085 366.727C225.555 365.879 223.525 365.455 220.994 365.455H211.085V407H205.449ZM271.528 372.091C271.256 369.788 270.15 368 268.21 366.727C266.271 365.455 263.892 364.818 261.074 364.818C259.013 364.818 257.21 365.152 255.665 365.818C254.134 366.485 252.938 367.402 252.074 368.568C251.225 369.735 250.801 371.061 250.801 372.545C250.801 373.788 251.097 374.856 251.688 375.75C252.294 376.629 253.066 377.364 254.006 377.955C254.945 378.53 255.93 379.008 256.96 379.386C257.991 379.75 258.938 380.045 259.801 380.273L264.528 381.545C265.741 381.864 267.089 382.303 268.574 382.864C270.074 383.424 271.506 384.189 272.869 385.159C274.248 386.114 275.384 387.341 276.278 388.841C277.172 390.341 277.619 392.182 277.619 394.364C277.619 396.879 276.96 399.152 275.642 401.182C274.339 403.212 272.43 404.826 269.915 406.023C267.415 407.22 264.377 407.818 260.801 407.818C257.468 407.818 254.581 407.28 252.142 406.205C249.718 405.129 247.809 403.629 246.415 401.705C245.036 399.78 244.256 397.545 244.074 395H249.892C250.044 396.758 250.634 398.212 251.665 399.364C252.71 400.5 254.028 401.348 255.619 401.909C257.225 402.455 258.953 402.727 260.801 402.727C262.953 402.727 264.884 402.379 266.597 401.682C268.309 400.97 269.665 399.985 270.665 398.727C271.665 397.455 272.165 395.97 272.165 394.273C272.165 392.727 271.733 391.47 270.869 390.5C270.006 389.53 268.869 388.742 267.46 388.136C266.051 387.53 264.528 387 262.892 386.545L257.165 384.909C253.528 383.864 250.65 382.371 248.528 380.432C246.407 378.492 245.347 375.955 245.347 372.818C245.347 370.212 246.051 367.939 247.46 366C248.884 364.045 250.794 362.53 253.188 361.455C255.597 360.364 258.286 359.818 261.256 359.818C264.256 359.818 266.922 360.356 269.256 361.432C271.589 362.492 273.438 363.947 274.801 365.795C276.18 367.644 276.907 369.742 276.983 372.091H271.528ZM284.341 365.455V360.455H319.25V365.455H304.614V407H298.977V365.455H284.341ZM327.949 407V360.455H343.676C347.313 360.455 350.297 361.076 352.631 362.318C354.964 363.545 356.691 365.235 357.812 367.386C358.934 369.538 359.494 371.985 359.494 374.727C359.494 377.47 358.934 379.902 357.812 382.023C356.691 384.144 354.972 385.811 352.653 387.023C350.335 388.22 347.373 388.818 343.767 388.818H331.04V383.727H343.585C346.07 383.727 348.07 383.364 349.585 382.636C351.116 381.909 352.222 380.879 352.903 379.545C353.6 378.197 353.949 376.591 353.949 374.727C353.949 372.864 353.6 371.235 352.903 369.841C352.206 368.447 351.093 367.371 349.562 366.614C348.032 365.841 346.009 365.455 343.494 365.455H333.585V407H327.949ZM349.858 386.091L361.312 407H354.767L343.494 386.091H349.858Z" fill="white"/>
</svg>
