<svg width="352" height="352" viewBox="0 0 352 352" fill="none" xmlns="http://www.w3.org/2000/svg">
<path d="M320.822 0.343475C321.57 0.590421 322.844 0.809903 323.619 0.837341C325.004 0.86478 325.946 1.30379 325.946 1.93488C325.946 2.09951 326.5 2.53853 327.192 2.89523C329.02 3.85558 331.651 6.32503 332.676 8.08109C333.562 9.56276 333.618 9.61762 335.917 10.3859C338.991 11.4011 342.896 12.1968 346.359 12.4712C349.377 12.7456 350.375 13.1297 350.929 14.337C351.316 15.1876 350.956 16.3126 350.181 16.7516C349.876 16.9162 349.294 17.3278 348.879 17.6571C348.463 17.9863 346.58 18.8369 344.724 19.5503C335.418 23.0899 332.011 24.7087 329.768 26.7392C329.159 27.2879 327.968 28.7696 327.137 30.0043C325.613 32.3366 324.644 33.1598 321.237 35.1079C320.019 35.8213 319.575 36.2877 318.966 37.495C317.332 40.7053 316.39 46.5771 316.612 52.0374C317 60.7628 319.326 69.1589 325.752 84.9634C327.497 89.2712 329.269 93.8534 329.657 95.1705C331.18 100.109 332.621 107.765 333.479 115.557C334.061 120.798 333.978 137.645 333.341 142.31C332.011 152.16 329.962 159.349 326.555 166.099C325.807 167.58 324.284 171.504 323.176 174.797C320.129 184.016 318.274 187.94 315.587 190.793C314.23 192.22 314.119 192.302 313.482 191.973C313.039 191.754 312.79 191.726 312.707 191.918C312.457 192.686 309.715 196.967 308.829 197.982C307.943 198.997 307.693 199.134 307.029 198.97C306.502 198.833 306.281 198.586 306.281 198.174C306.281 197.872 306.17 197.433 306.032 197.214C305.727 196.747 305.644 197.049 303.373 205.802C301.018 214.966 299.661 218.89 297.224 223.664C294.953 228.137 290.715 233.899 289.109 234.695C288.084 235.188 287.641 234.667 287.807 233.213C287.862 232.582 287.834 232.115 287.696 232.198C287.308 232.417 284.511 236.176 281.741 240.1C276.894 247.042 273.377 249.978 269.942 249.841C268.419 249.786 268.28 249.841 265.621 251.597C260.581 254.917 256.287 256.7 252.271 257.167L250.665 257.331L250.471 256.453L250.277 255.575L244.682 255.822C235.542 256.179 226.707 256.096 224.297 255.575C221.084 254.889 220.697 254.67 220.697 253.737C220.697 253.106 220.863 252.886 221.445 252.694C222.137 252.447 222.026 252.365 219.45 250.993C216.321 249.347 214.216 247.947 211.917 246.081C209.839 244.38 209.036 243.832 208.593 243.832C208.316 243.832 208.233 244.682 208.233 247.371C208.233 255.548 206.1 261.282 199.536 270.831C195.963 276.017 194.191 279.2 193.554 281.477C193.36 282.273 193.249 283.837 193.332 285.593C193.415 288.007 193.526 288.666 194.218 290.01C195.575 292.754 199.065 294.839 205.519 296.65C216.708 299.861 231.36 301.425 260.47 302.55C268.474 302.851 269.637 303.098 272.712 305.129C275.98 307.269 277.891 309.738 282.544 317.833C284.317 320.878 286.283 324.171 286.92 325.104C289.856 329.384 292.848 331.552 299.301 334.104C303.733 335.832 304.896 337.012 304.896 339.838C304.896 341.512 304.841 341.649 303.843 342.582C302.652 343.707 301.434 344.146 298.47 344.53C295.977 344.832 291.657 344.475 289.552 343.762C288.416 343.378 287.668 343.296 286.56 343.46C284.871 343.68 282.572 343.378 281.436 342.774C279.387 341.704 277.808 339.537 276.202 335.558C274.512 331.442 273.764 330.454 272.407 330.756C271.715 330.893 271.798 331.332 273.1 334.323C274.54 337.643 274.761 339.344 273.903 340.25C273.072 341.128 272.241 341.238 269.61 340.936C266.923 340.607 264.984 339.811 263.932 338.631C263.184 337.78 261.965 335.092 261.965 334.268C261.965 334.076 261.578 332.622 261.107 331.058C259.75 326.476 257.063 322.168 255.069 321.4C254.487 321.153 251.994 320.467 249.474 319.836C246.981 319.177 243.298 318.189 241.331 317.586C230.668 314.43 219.284 312.866 202.832 312.29C197.403 312.098 188.125 312.51 184.69 313.086C180.674 313.744 179.373 313.827 177.212 313.525C171.562 312.729 167.961 309.107 167.961 304.196C167.934 301.562 168.571 299.778 170.454 297.007C172.365 294.236 172.808 293.385 173.972 290.01C175.107 286.8 176.16 282.328 176.852 277.855C177.545 273.383 177.517 261.31 176.852 257.414C176.575 255.932 176.326 254.642 176.243 254.587C176.187 254.532 172.698 255.164 168.515 255.987L160.871 257.496L156.218 259.691C150.928 262.188 149.931 262.544 142.868 264.273C135.113 266.139 133.478 267.127 130.182 272.011C125.696 278.651 121.236 281.696 109.908 285.977C107.249 286.965 104.203 288.227 103.178 288.776C98.0538 291.41 80.0784 310.15 71.9355 321.345C67.7532 327.08 66.3406 329.302 62.2138 336.71C57.0898 345.847 56.342 346.369 48.0052 346.725C42.7704 346.972 41.3302 347.192 33.1318 349.195C24.0471 351.39 19.671 351.637 16.6243 350.128C15.184 349.414 14.6855 348.866 11.1403 344.311C6.87493 338.823 5.90551 337.753 2.52646 334.653C0.670752 332.951 0.227615 332.403 0.0614319 331.525C-0.215539 330.043 0.44918 328.781 1.94482 328.04C3.02501 327.491 3.41279 327.464 6.84723 327.601C11.805 327.765 13.9654 328.479 18.8955 331.442C23.2439 334.076 24.4626 334.378 25.2104 333.006C26.4845 330.756 31.9408 329.878 37.3141 331.086C39.7791 331.634 40.2499 331.689 41.3024 331.36C43.0197 330.866 44.3214 329.357 45.2354 326.805C47.2019 321.345 50.304 315.94 54.2093 311.22C58.5023 306.034 63.3217 301.507 75.8408 290.888C90.5756 278.376 95.4226 273.273 100.63 264.685C103.399 260.13 104.784 258.292 107.194 255.932C111.071 252.118 114.617 250.499 121.181 249.594C127.413 248.716 131.18 247.289 135.279 244.298C137.273 242.844 139.267 241.088 144.973 235.737C147.41 233.46 150.18 230.935 151.149 230.085L152.95 228.521L151.703 227.917C151.038 227.561 149.515 226.326 148.352 225.146C147.189 223.939 145.942 222.869 145.582 222.731C145.194 222.594 144.003 222.649 142.591 222.841C141.289 223.033 138.547 223.335 136.497 223.527C130.487 224.021 125.723 224.625 123.203 225.201C119.298 226.106 116.445 227.643 115.558 229.317C115.226 229.975 114.977 230.14 114.395 230.057C113.814 230.003 113.564 229.756 113.315 229.015C112.816 227.561 112.9 222.622 113.481 220.454C113.73 219.411 113.897 218.588 113.814 218.588C113.73 218.588 113.204 219.027 112.623 219.603C111.625 220.564 111.57 220.564 110.933 220.152C110.407 219.823 110.296 219.549 110.379 218.945C110.656 217.244 111.653 214.774 112.789 212.854L114.007 210.823L111.709 208.546C110.462 207.311 109.022 205.665 108.496 204.896L107.582 203.497L106.834 204.211C105.92 205.089 104.812 207.092 104.092 209.149C103.427 211.07 103.095 211.454 102.236 211.454C101.738 211.454 101.461 211.207 101.128 210.412C100.907 209.863 100.685 209.369 100.63 209.314C100.602 209.259 99.7157 209.835 98.7186 210.604C93.1791 214.692 86.5041 216.86 77.4749 217.518C74.0958 217.765 73.0987 217.93 72.6556 218.314C71.4092 219.411 67.7809 221.634 64.9004 223.061C59.2502 225.859 54.6525 227.122 50.0824 227.176C46.648 227.176 45.7617 226.984 45.5401 226.106C45.4016 225.558 45.5678 225.173 46.3433 224.295C49.9993 220.317 51.3565 215.899 51.495 207.613L51.5781 204.183L50.7472 204.101C48.0051 203.881 47.562 203.744 47.3127 203.058C47.1188 202.564 47.1465 202.208 47.4512 201.741C47.8667 201.11 47.8667 201.11 46.4818 200.918C45.3739 200.781 45.0138 200.589 44.7923 200.095C44.5153 199.519 44.6815 199.217 46.1771 197.461C47.1188 196.336 48.3929 194.36 49.113 192.933C50.2763 190.546 50.7195 189.147 53.8215 178.062C54.3478 176.196 55.151 173.946 55.6219 173.013C56.5913 171.038 56.5913 171.038 55.9542 171.23C55.6219 171.339 55.2341 171.202 54.9294 170.845C54.4309 170.324 54.4863 170.214 56.3143 167.086C58.7516 162.861 62.6846 157.071 65.1774 153.971C70.0798 147.934 76.8656 142.227 82.4327 139.456C83.2082 139.072 83.8729 138.605 83.8729 138.468C83.8729 138.194 82.7373 137.618 81.5741 137.261C81.2694 137.151 81.1032 136.822 81.1032 136.301C81.1032 135.505 81.1586 135.477 83.6513 134.901C90.1879 133.392 98.0538 133.118 103.316 134.243C103.926 134.352 104.036 134.298 103.926 133.886C103.843 133.584 104.009 133.173 104.286 132.926C104.729 132.542 104.978 132.514 106.585 132.871C107.582 133.09 109.631 133.282 111.155 133.282C114.7 133.31 116.916 132.651 121.319 130.182C124.975 128.124 126.859 127.383 129.019 127.081C130.321 126.917 130.764 126.67 132.011 125.545C133.7 124.008 135.113 123.514 138.519 123.212C140.541 123.048 140.652 122.993 140.237 122.554C139.738 122.005 139.71 121.484 140.181 120.88C140.514 120.441 140.707 120.469 142.868 120.935C145.776 121.566 149.681 121.594 156.855 121.045C165.302 120.414 168.82 119.783 176.492 117.56C188.346 114.13 189.205 113.938 193.138 113.938C195.658 113.966 196.6 114.075 198.539 114.707C205.131 116.764 205.713 116.847 212.526 117.039C219.506 117.231 219.949 117.341 222.774 119.261L224.02 120.112L230.585 120.194C237.398 120.249 239.06 120.469 242.577 121.676C245.347 122.636 249.585 125.051 250.582 126.231C251.136 126.889 251.468 126.752 251.164 125.956C250.859 125.161 250.97 124.886 251.717 124.475C252.548 124.036 256.232 127.273 267.92 138.743C279.027 149.636 281.104 151.501 283.32 152.599C287.502 154.712 292.432 154.575 296.975 152.242C298.886 151.254 301.628 148.977 302.68 147.495L303.234 146.755L302.209 146.425C300.824 145.986 300.631 145.767 300.852 144.971C300.991 144.395 301.212 144.285 302.459 144.148C305.339 143.791 308.164 141.761 309.964 138.743C311.793 135.615 312.817 129.331 312.568 122.444C312.236 112.951 310.685 106.118 303.788 84.0031C297.196 62.8481 295.036 53.9032 294.094 43.943C293.014 32.2817 294.98 21.3064 299.661 13.02L301.018 10.6328L300.326 9.61765C299.052 7.75184 299.55 6.73661 301.794 6.6543C302.902 6.62686 303.594 6.32504 305.865 4.98056C312.845 0.78249 314.119 0.233695 317.332 0.041626C318.828 -0.0681275 319.852 0.0416533 320.822 0.343475Z" fill="#FA6705"/>
</svg>
