<svg width="352" height="352" viewBox="0 0 352 352" fill="none" xmlns="http://www.w3.org/2000/svg">
<path d="M30.2639 0.343462C29.5161 0.590408 28.242 0.809915 27.4665 0.837353C26.0817 0.864791 25.14 1.30381 25.14 1.93489C25.14 2.09952 24.586 2.53853 23.8936 2.89523C22.0656 3.85557 19.4344 6.32503 18.4096 8.08108C17.5232 9.56275 17.4679 9.61763 15.169 10.3859C12.0946 11.4011 8.18932 12.1968 4.72718 12.4712C1.70819 12.7456 0.711097 13.1297 0.157155 14.337C-0.230605 15.1876 0.129457 16.3126 0.904977 16.7516C1.20965 16.9162 1.79128 17.3278 2.20674 17.6571C2.6222 17.9863 4.5056 18.8369 6.36131 19.5503C15.6675 23.0899 19.0743 24.7087 21.3178 26.7392C21.9271 27.2879 23.1181 28.7696 23.949 30.0043C25.4723 32.3366 26.4417 33.1597 29.8485 35.1079C31.0671 35.8213 31.5103 36.2877 32.1196 37.495C33.7538 40.7053 34.6955 46.5771 34.4739 52.0373C34.0861 60.7627 31.7596 69.1589 25.3338 84.9634C23.5889 89.2712 21.8163 93.8534 21.4285 95.1705C19.9052 100.109 18.465 107.765 17.6063 115.557C17.0247 120.798 17.1078 137.645 17.7448 142.31C19.0743 152.16 21.1239 159.349 24.5306 166.099C25.2784 167.58 26.8018 171.504 27.9097 174.797C30.9564 184.016 32.8121 187.94 35.4987 190.793C36.8558 192.22 36.9666 192.302 37.6037 191.973C38.0468 191.753 38.2961 191.726 38.3792 191.918C38.6285 192.686 41.3705 196.967 42.2568 197.982C43.1431 198.997 43.3924 199.134 44.0571 198.97C44.5833 198.833 44.8049 198.586 44.8049 198.174C44.8049 197.872 44.9157 197.433 45.0542 197.214C45.3589 196.747 45.4419 197.049 47.7131 205.802C50.0674 214.966 51.4245 218.89 53.8619 223.664C56.133 228.137 60.3707 233.899 61.9771 234.695C63.0019 235.188 63.4451 234.667 63.2789 233.213C63.2235 232.582 63.2512 232.115 63.3897 232.198C63.7774 232.417 66.5748 236.176 69.3446 240.1C74.1916 247.042 77.7091 249.978 81.1435 249.841C82.6669 249.786 82.8054 249.841 85.4643 251.597C90.5052 254.917 94.7982 256.7 98.8143 257.167L100.421 257.331L100.615 256.453L100.808 255.575L106.403 255.822C115.543 256.179 124.379 256.096 126.788 255.575C130.001 254.889 130.389 254.67 130.389 253.737C130.389 253.106 130.223 252.886 129.641 252.694C128.949 252.447 129.06 252.365 131.635 250.993C134.765 249.347 136.87 247.947 139.169 246.081C141.246 244.38 142.049 243.832 142.493 243.832C142.77 243.832 142.853 244.682 142.853 247.371C142.853 255.548 144.985 261.282 151.55 270.831C155.123 276.017 156.895 279.2 157.532 281.477C157.726 282.273 157.837 283.837 157.754 285.593C157.671 288.007 157.56 288.666 156.867 290.01C155.51 292.754 152.02 294.839 145.567 296.65C134.377 299.861 119.726 301.425 90.6159 302.55C82.6115 302.851 81.4482 303.098 78.3738 305.129C75.1056 307.269 73.1945 309.738 68.5413 317.833C66.7687 320.878 64.8022 324.171 64.1652 325.104C61.2293 329.384 58.238 331.552 51.7846 334.104C47.353 335.832 46.1898 337.012 46.1898 339.838C46.1898 341.512 46.2452 341.649 47.2423 342.582C48.4332 343.707 49.6519 344.146 52.6155 344.53C55.1082 344.832 59.429 344.475 61.534 343.762C62.6696 343.378 63.4174 343.296 64.5253 343.46C66.2148 343.68 68.5136 343.378 69.6492 342.774C71.6988 341.704 73.2776 339.537 74.884 335.558C76.5735 331.442 77.3213 330.454 78.6785 330.756C79.3709 330.893 79.2878 331.332 77.9861 334.323C76.5458 337.643 76.3242 339.344 77.1828 340.25C78.0138 341.128 78.8447 341.238 81.4759 340.936C84.1625 340.607 86.1013 339.811 87.1538 338.631C87.9016 337.78 89.1203 335.092 89.1203 334.268C89.1203 334.076 89.5081 332.622 89.9789 331.058C91.3361 326.476 94.0227 322.168 96.0169 321.4C96.5985 321.153 99.0913 320.467 101.612 319.836C104.104 319.177 107.788 318.189 109.755 317.586C120.418 314.43 131.802 312.866 148.254 312.29C153.682 312.098 162.961 312.51 166.395 313.086C170.411 313.744 171.713 313.827 173.873 313.525C179.524 312.729 183.124 309.107 183.124 304.196C183.152 301.562 182.515 299.778 180.632 297.007C178.72 294.236 178.277 293.385 177.114 290.01C175.978 286.8 174.926 282.328 174.234 277.855C173.541 273.383 173.569 261.31 174.234 257.414C174.511 255.932 174.76 254.642 174.843 254.587C174.898 254.532 178.388 255.164 182.57 255.987L190.215 257.496L194.868 259.691C200.158 262.188 201.155 262.544 208.218 264.273C215.973 266.139 217.607 267.127 220.903 272.011C225.39 278.651 229.849 281.696 241.177 285.977C243.836 286.965 246.883 288.227 247.908 288.776C253.032 291.41 271.007 310.15 279.15 321.345C283.333 327.08 284.745 329.302 288.872 336.71C293.996 345.847 294.744 346.369 303.081 346.725C308.315 346.972 309.756 347.192 317.954 349.195C327.039 351.39 331.415 351.637 334.461 350.128C335.902 349.414 336.4 348.866 339.945 344.311C344.211 338.823 345.18 337.753 348.559 334.653C350.415 332.951 350.858 332.403 351.024 331.525C351.301 330.043 350.637 328.781 349.141 328.04C348.061 327.491 347.673 327.464 344.238 327.601C339.281 327.765 337.12 328.479 332.19 331.442C327.842 334.076 326.623 334.378 325.875 333.006C324.601 330.756 319.145 329.878 313.772 331.086C311.307 331.634 310.836 331.689 309.783 331.36C308.066 330.866 306.764 329.357 305.85 326.805C303.884 321.345 300.782 315.94 296.876 311.22C292.583 306.034 287.764 301.507 275.245 290.888C260.51 278.376 255.663 273.273 250.456 264.685C247.686 260.13 246.301 258.292 243.892 255.932C240.014 252.118 236.469 250.499 229.905 249.594C223.673 248.716 219.906 247.289 215.807 244.298C213.813 242.844 211.819 241.088 206.113 235.737C203.676 233.46 200.906 230.935 199.936 230.085L198.136 228.521L199.383 227.917C200.047 227.561 201.571 226.326 202.734 225.146C203.897 223.939 205.144 222.869 205.504 222.731C205.891 222.594 207.082 222.649 208.495 222.841C209.797 223.033 212.539 223.335 214.588 223.527C220.599 224.021 225.362 224.625 227.883 225.201C231.788 226.106 234.641 227.643 235.527 229.317C235.86 229.975 236.109 230.14 236.691 230.057C237.272 230.003 237.521 229.756 237.771 229.015C238.269 227.561 238.186 222.622 237.605 220.454C237.355 219.411 237.189 218.588 237.272 218.588C237.355 218.588 237.882 219.027 238.463 219.603C239.46 220.564 239.516 220.564 240.153 220.152C240.679 219.823 240.79 219.549 240.707 218.945C240.43 217.244 239.433 214.774 238.297 212.854L237.078 210.823L239.377 208.546C240.624 207.311 242.064 205.665 242.59 204.896L243.504 203.497L244.252 204.211C245.166 205.089 246.274 207.092 246.994 209.149C247.659 211.07 247.991 211.454 248.85 211.454C249.348 211.454 249.625 211.207 249.957 210.412C250.179 209.863 250.401 209.369 250.456 209.314C250.484 209.259 251.37 209.835 252.367 210.604C257.907 214.692 264.582 216.86 273.611 217.518C276.99 217.765 277.987 217.93 278.43 218.314C279.676 219.411 283.305 221.634 286.185 223.061C291.836 225.859 296.433 227.122 301.003 227.176C304.438 227.176 305.324 226.984 305.546 226.106C305.684 225.558 305.518 225.173 304.742 224.295C301.086 220.317 299.729 215.899 299.591 207.613L299.508 204.183L300.339 204.101C303.081 203.881 303.524 203.744 303.773 203.058C303.967 202.564 303.939 202.208 303.634 201.741C303.219 201.11 303.219 201.11 304.604 200.918C305.712 200.781 306.072 200.589 306.293 200.095C306.57 199.519 306.404 199.217 304.909 197.461C303.967 196.336 302.693 194.36 301.973 192.933C300.809 190.546 300.366 189.147 297.264 178.062C296.738 176.196 295.935 173.946 295.464 173.013C294.494 171.038 294.494 171.038 295.131 171.23C295.464 171.339 295.852 171.202 296.156 170.845C296.655 170.324 296.599 170.214 294.771 167.086C292.334 162.861 288.401 157.071 285.908 153.971C281.006 147.934 274.22 142.227 268.653 139.456C267.878 139.072 267.213 138.605 267.213 138.468C267.213 138.194 268.348 137.618 269.512 137.261C269.816 137.151 269.982 136.822 269.982 136.301C269.982 135.505 269.927 135.477 267.434 134.901C260.898 133.392 253.032 133.118 247.769 134.243C247.16 134.352 247.049 134.298 247.16 133.886C247.243 133.584 247.077 133.173 246.8 132.926C246.357 132.542 246.108 132.514 244.501 132.871C243.504 133.09 241.454 133.282 239.931 133.282C236.386 133.31 234.17 132.651 229.766 130.182C226.11 128.124 224.227 127.383 222.066 127.081C220.765 126.917 220.322 126.67 219.075 125.545C217.386 124.008 215.973 123.514 212.566 123.212C210.544 123.048 210.434 122.993 210.849 122.554C211.348 122.005 211.375 121.484 210.905 120.88C210.572 120.441 210.378 120.469 208.218 120.935C205.31 121.566 201.404 121.594 194.231 121.045C185.783 120.414 182.266 119.783 174.594 117.56C162.739 114.13 161.881 113.938 157.948 113.938C155.427 113.966 154.486 114.075 152.547 114.707C145.955 116.764 145.373 116.847 138.56 117.039C131.58 117.231 131.137 117.341 128.312 119.261L127.065 120.112L120.501 120.194C113.688 120.249 112.026 120.469 108.508 121.676C105.739 122.636 101.501 125.051 100.504 126.231C99.9499 126.889 99.6175 126.752 99.9222 125.956C100.227 125.161 100.116 124.886 99.3682 124.475C98.5373 124.036 94.8536 127.273 83.1654 138.743C72.0589 149.636 69.9816 151.501 67.7658 152.599C63.5836 154.712 58.6535 154.575 54.1111 152.242C52.2 151.254 49.458 148.977 48.4055 147.495L47.8516 146.755L48.8764 146.425C50.2612 145.986 50.4551 145.767 50.2335 144.971C50.0951 144.395 49.8735 144.285 48.6271 144.148C45.7466 143.791 42.9215 141.761 41.1212 138.743C39.2932 135.615 38.2684 129.331 38.5177 122.444C38.85 112.951 40.4011 106.118 47.2977 84.003C53.8896 62.8481 56.0499 53.9032 56.9916 43.943C58.0718 32.2817 56.1053 21.3064 51.4245 13.02L50.0674 10.6328L50.7598 9.61763C52.0339 7.75182 51.5353 6.7366 49.2918 6.65429C48.184 6.62685 47.4915 6.32503 45.2204 4.98055C38.2407 0.782476 36.9666 0.233709 33.7538 0.0416403C32.2581 -0.0681132 31.2333 0.0416403 30.2639 0.343462Z" fill="#FA6705"/>
</svg>
