<svg width="307" height="359" viewBox="0 0 307 359" fill="none" xmlns="http://www.w3.org/2000/svg">
<path d="M154.268 204.012L154.606 204.951L154.607 204.953L176.973 267.103C178.844 267.973 183.536 268.456 188.096 268.926C190.987 269.224 193.825 269.516 195.858 269.898C205.731 271.74 212.216 274.475 229.122 283.848C243.475 291.816 249.412 294.728 255.779 296.915C261.572 298.904 267.725 299.9 273.528 299.813C276.238 299.768 278.109 300.454 279.177 301.886C279.856 302.755 279.971 303.215 280.327 305.715C281.094 311.169 283.84 315.964 286.395 316.363C287.942 316.578 288.09 317.825 287.16 322.823C286.126 328.482 286.221 330.755 287.816 335.452C288.899 338.714 289.062 339.067 289.956 339.884C291.177 341.023 292.593 341.199 293.881 340.417C294.644 339.952 295.002 339.344 295.939 337.007C297.648 332.751 298.307 331.467 301.937 325.54C304.948 320.615 305.285 319.955 305.445 318.356C305.782 314.973 304.007 310.965 298.748 303.239C293.981 296.275 293.268 295.005 291.19 290.194C287.914 282.519 287.163 282.003 276.806 280.432C268.418 279.184 265.84 278.647 258.998 276.757C245.65 273.087 221.773 262.879 217.501 259.014C216.626 258.249 214.37 255.844 212.507 253.704C204.505 244.615 200.082 241.517 192.286 239.661C186.553 238.3 185.053 237.12 180.571 230.521C176.461 224.523 175.776 223.716 171.573 219.647L167.877 216.067L163.768 209.447C161.824 206.311 156.356 205.289 154.943 205.025C154.738 204.986 154.618 204.964 154.607 204.953L154.606 204.951C154.615 204.915 155.517 204.471 156.704 203.892L154.268 204.012Z" fill="#FA6705"/>
<path d="M152.055 242.432C152.849 237.22 153.414 233.515 153.438 233.5L103.154 222.457C105.646 223.232 106.332 236.455 106.903 247.446C106.903 247.446 110.24 256.51 111.018 257.5C111.018 257.5 115.547 263.569 116.319 263.5C116.319 263.5 118.292 274.492 121.938 281.298C123.987 285.121 125.523 287.988 125.621 287.587C126.811 294.437 127.223 298.563 127.04 301.398C126.955 302.384 126.582 304.27 126.006 306.35C125.238 309.216 124.962 309.981 124.045 311.457C122.217 314.48 118.966 316.321 113.552 317.286C104.145 319.044 92.5984 318.196 70.2362 314.145C64.0894 313.022 63.1368 313.101 60.2167 314.954C57.1179 316.902 54.9502 319.495 49.0642 328.291C46.833 331.597 44.3829 335.161 43.6283 336.156C40.156 340.719 37.2588 342.752 31.6289 344.601C27.7697 345.842 26.5446 347.035 25.7193 350.407C25.2305 352.404 25.2323 352.578 25.7146 353.876C26.2875 355.439 27.0817 356.188 29.2128 357.196C31.0114 358.018 34.386 358.392 36.1877 357.931C37.1594 357.683 37.7495 357.724 38.54 358.125C39.7547 358.7 41.5829 358.766 42.6187 358.256C44.4826 357.359 46.3106 355.065 48.6885 350.615C51.1693 346.018 52.0238 344.978 52.9629 345.589C53.447 345.881 53.2559 346.389 51.3971 349.717C49.3373 353.411 48.6728 355.4 49.0583 356.64C49.4308 357.841 50.0277 358.126 52.1074 358.254C54.2371 358.358 55.937 357.768 57.0782 356.555C57.8927 355.679 59.6004 352.696 59.8408 351.714C59.8969 351.485 60.6151 349.822 61.4283 348.043C63.7937 342.827 67.0854 338.184 68.8192 337.637C69.3316 337.45 71.4187 337.094 73.5108 336.808C75.5899 336.484 78.6666 335.988 80.3314 335.632C89.3242 333.842 98.3973 334.085 111.018 336.445C115.184 337.222 122.086 339.432 124.518 340.756C127.365 342.286 128.327 342.625 130.05 342.665C134.559 342.762 138.342 339.108 139.777 333.248C140.567 330.11 140.606 327.864 139.989 324.208C139.352 320.547 139.265 319.45 139.37 315.208C139.448 311.167 139.958 305.636 140.74 300.171C141.522 294.706 145.069 280.306 146.71 275.78C147.158 274.582 150.22 254.481 152.055 242.432Z" fill="#FA6705"/>
<path d="M278.938 0.837302C278.162 0.809867 276.888 0.590384 276.14 0.343436C275.171 0.0416171 274.146 -0.0681546 272.65 0.0415866C269.438 0.233664 268.164 0.782462 261.184 4.98052C258.913 6.325 258.22 6.62682 257.112 6.65426C254.869 6.73658 254.37 7.75179 255.644 9.61761L256.337 10.6328L254.98 13.0199C250.299 21.3063 248.332 32.2817 249.413 43.943C250.354 53.9031 252.515 62.848 259.107 84.003C266.003 106.118 267.554 112.95 267.887 122.444C268.136 129.331 267.111 135.615 265.283 138.743C263.483 141.761 260.658 143.791 257.777 144.148C256.531 144.285 256.309 144.395 256.171 144.971C255.949 145.767 256.143 145.986 257.528 146.425L258.553 146.755L257.999 147.495C256.946 148.977 254.204 151.254 252.293 152.242C247.751 154.574 242.821 154.712 238.638 152.599C236.423 151.501 234.345 149.636 223.239 138.743C211.551 127.273 207.867 124.036 207.036 124.475C206.288 124.886 206.177 125.161 206.482 125.956C206.787 126.752 206.454 126.889 205.9 126.231C204.903 125.051 200.666 122.636 197.896 121.676C194.378 120.469 192.717 120.249 185.903 120.194L179.339 120.112L178.092 119.261C175.267 117.341 174.824 117.231 167.845 117.039C161.031 116.847 160.449 116.764 153.858 114.707C151.919 114.075 150.977 113.966 148.457 113.938C144.524 113.938 143.665 114.13 131.811 117.56C124.138 119.783 120.621 120.414 112.173 121.045C105 121.594 101.095 121.566 98.1863 120.935C96.0259 120.469 95.832 120.441 95.4997 120.88C95.0288 121.484 95.0565 122.005 95.5551 122.554C95.9705 122.993 95.8597 123.048 93.8379 123.212C90.4311 123.514 89.0186 124.008 87.329 125.545C86.0827 126.67 85.6395 126.917 84.3377 127.081C82.1774 127.383 80.294 128.124 76.6379 130.182C72.2341 132.651 70.0183 133.31 66.4731 133.282C64.9497 133.282 62.9002 133.09 61.9031 132.871C60.2966 132.514 60.0474 132.541 59.6042 132.926C59.3272 133.173 59.1611 133.584 59.2442 133.886C59.3549 134.298 59.2442 134.352 58.6348 134.243C53.3724 133.118 45.5064 133.392 38.9699 134.901C36.4771 135.477 36.4217 135.505 36.4217 136.301C36.4217 136.822 36.5879 137.151 36.8926 137.261C38.0559 137.618 39.1914 138.194 39.1914 138.468C39.1914 138.605 38.5267 139.072 37.7512 139.456C32.1841 142.227 25.3983 147.934 20.4959 153.971C18.0032 157.071 14.0701 162.861 11.6328 167.086C9.80479 170.214 9.7494 170.324 10.2479 170.845C10.5526 171.202 10.9404 171.339 11.2727 171.23C11.4914 171.164 11.635 171.12 11.6901 171.172C11.7956 171.27 11.577 171.716 10.9404 173.013C10.4695 173.946 9.6663 176.196 9.14006 178.062C6.03798 189.147 5.59483 190.546 4.43156 192.933C3.71144 194.36 2.43736 196.336 1.49565 197.461C1.09673e-05 199.217 -0.166188 199.519 0.11079 200.095C0.332378 200.589 0.692455 200.781 1.80033 200.918C2.61562 201.031 2.95094 201.077 3.00407 201.225C3.0412 201.329 2.9406 201.481 2.76973 201.741C2.46507 202.207 2.43736 202.564 2.63124 203.058C2.8805 203.744 3.32368 203.881 6.06568 204.101L6.89659 204.183L6.81352 207.613C6.67503 215.899 5.31785 220.317 1.66185 224.295C0.886333 225.173 0.720134 225.558 0.858623 226.106C1.08021 226.984 1.9665 227.176 5.40095 227.176C9.97099 227.122 14.5687 225.859 20.2189 223.061C23.0994 221.634 26.7277 219.411 27.9741 218.314C28.4172 217.93 29.4143 217.765 32.7934 217.518C41.8227 216.86 48.4977 214.692 54.0371 210.604C55.0342 209.835 55.9205 209.259 55.9482 209.314C56.0036 209.369 56.2252 209.863 56.4467 210.412C56.7791 211.207 57.0561 211.454 57.5546 211.454C58.4132 211.454 58.7456 211.07 59.4103 209.149C60.1305 207.092 61.2384 205.089 62.1524 204.21L62.9002 203.497L63.8142 204.896C64.3404 205.665 65.7807 207.311 67.027 208.546L69.3259 210.823L68.1072 212.854C66.9717 214.774 65.9746 217.244 65.6976 218.945C65.6145 219.549 65.7253 219.823 66.2515 220.152C66.8886 220.564 66.9439 220.564 67.941 219.603C68.5227 219.027 69.0489 218.588 69.132 218.588C69.2151 218.588 69.0489 219.411 68.7997 220.454C68.218 222.622 68.1349 227.561 68.6335 229.015C68.8827 229.756 69.132 230.003 69.7137 230.057C70.2953 230.14 70.5446 229.975 70.8769 229.317C71.7633 227.643 74.6161 226.106 78.5213 225.201C81.0418 224.625 85.8057 224.021 91.816 223.527C93.8655 223.335 96.6076 223.033 97.9093 222.841C99.3219 222.649 100.513 222.594 100.901 222.731C101.261 222.869 102.507 223.939 103.67 225.146C104.834 226.326 106.357 227.561 107.022 227.917L108.268 228.521L106.468 230.085C106.099 230.409 114.688 232.148 125.335 234.304C142.656 237.811 165.421 242.421 163.912 243.831C164.355 243.831 165.158 244.38 167.235 246.081C169.534 247.947 171.639 249.347 174.769 250.993C177.345 252.365 177.455 252.447 176.763 252.694C176.181 252.886 176.015 253.106 176.015 253.737C176.015 254.67 176.403 254.889 179.616 255.575C182.025 256.096 190.861 256.179 200.001 255.822L205.596 255.575L205.983 257.331L207.59 257.167C211.606 256.7 215.899 254.917 220.94 251.597C223.599 249.84 223.737 249.786 225.261 249.84C228.695 249.978 232.213 247.042 237.06 240.1C239.829 236.176 242.627 232.417 243.015 232.198C243.153 232.115 243.181 232.582 243.125 233.213C242.959 234.667 243.402 235.188 244.427 234.695C246.034 233.899 250.271 228.137 252.542 223.664C254.98 218.89 256.337 214.966 258.691 205.802C260.962 197.049 261.045 196.747 261.35 197.214C261.488 197.433 261.599 197.872 261.599 198.174C261.599 198.586 261.821 198.833 262.347 198.97C263.012 199.134 263.261 198.997 264.147 197.982C265.034 196.967 267.776 192.686 268.025 191.918C268.108 191.726 268.357 191.753 268.801 191.973C269.438 192.302 269.548 192.22 270.906 190.793C273.592 187.94 275.448 184.016 278.495 174.797C279.602 171.504 281.126 167.58 281.874 166.099C285.28 159.349 287.33 152.16 288.659 142.31C289.296 137.645 289.38 120.798 288.798 115.557C287.939 107.765 286.499 100.109 284.976 95.1704C284.588 93.8534 282.815 89.2712 281.07 84.9633C274.645 69.1588 272.318 60.7627 271.93 52.0373C271.709 46.5771 272.65 40.7053 274.285 37.495C274.894 36.2877 275.337 35.8212 276.556 35.1078C279.962 33.1597 280.932 32.3366 282.455 30.0043C283.286 28.7696 284.477 27.2879 285.086 26.7391C287.33 24.7087 290.737 23.0898 300.043 19.5503C301.899 18.8369 303.782 17.9863 304.197 17.657C304.613 17.3278 305.195 16.9162 305.499 16.7516C306.275 16.3126 306.635 15.1876 306.247 14.337C305.693 13.1297 304.696 12.7456 301.677 12.4712C298.215 12.1968 294.31 11.4011 291.235 10.3859C288.936 9.61758 288.881 9.56272 287.995 8.08105C286.97 6.32499 284.339 3.85554 282.511 2.89519C281.818 2.53849 281.264 2.09946 281.264 1.93484C281.264 1.30376 280.323 0.864737 278.938 0.837302Z" fill="#FA6705"/>
</svg>
