<svg width="400" height="560" viewBox="0 0 400 560" fill="none" xmlns="http://www.w3.org/2000/svg">
<rect x="19" y="22" width="361" height="401" rx="14" fill="#B7B7B7" fill-opacity="0.16"/>
<mask id="path-2-inside-1_3108_324" fill="white">
<path fill-rule="evenodd" clip-rule="evenodd" d="M20 0C8.95431 0 0 8.9543 0 20V540C0 551.046 8.95431 560 20 560H380C391.046 560 400 551.046 400 540V20C400 8.95431 391.046 0 380 0H20ZM67.7 70C56.6543 70 47.7 78.9543 47.7 90V364.6C47.7 375.646 56.6543 384.6 67.7 384.6H332.3C343.346 384.6 352.3 375.646 352.3 364.6V90C352.3 78.9543 343.346 70 332.3 70H67.7Z"/>
</mask>
<path fill-rule="evenodd" clip-rule="evenodd" d="M20 0C8.95431 0 0 8.9543 0 20V540C0 551.046 8.95431 560 20 560H380C391.046 560 400 551.046 400 540V20C400 8.95431 391.046 0 380 0H20ZM67.7 70C56.6543 70 47.7 78.9543 47.7 90V364.6C47.7 375.646 56.6543 384.6 67.7 384.6H332.3C343.346 384.6 352.3 375.646 352.3 364.6V90C352.3 78.9543 343.346 70 332.3 70H67.7Z" fill="black"/>
<path d="M1 20C1 9.50658 9.50659 1 20 1V-1C8.40202 -1 -1 8.40201 -1 20H1ZM1 540V20H-1V540H1ZM20 559C9.50659 559 1 550.493 1 540H-1C-1 551.598 8.40203 561 20 561V559ZM380 559H20V561H380V559ZM399 540C399 550.493 390.493 559 380 559V561C391.598 561 401 551.598 401 540H399ZM399 20V540H401V20H399ZM380 1C390.493 1 399 9.50659 399 20H401C401 8.40202 391.598 -1 380 -1V1ZM20 1H380V-1H20V1ZM48.7 90C48.7 79.5066 57.2066 71 67.7 71V69C56.102 69 46.7 78.4021 46.7 90H48.7ZM48.7 364.6V90H46.7V364.6H48.7ZM67.7 383.6C57.2066 383.6 48.7 375.093 48.7 364.6H46.7C46.7 376.198 56.102 385.6 67.7 385.6V383.6ZM332.3 383.6H67.7V385.6H332.3V383.6ZM351.3 364.6C351.3 375.093 342.793 383.6 332.3 383.6V385.6C343.898 385.6 353.3 376.198 353.3 364.6H351.3ZM351.3 90V364.6H353.3V90H351.3ZM332.3 71C342.793 71 351.3 79.5066 351.3 90H353.3C353.3 78.402 343.898 69 332.3 69V71ZM67.7 71H332.3V69H67.7V71Z" fill="black" mask="url(#path-2-inside-1_3108_324)"/>
<rect x="0.5" y="-0.5" width="312" height="33.1455" transform="matrix(1 0 0 -1 43 539.146)" fill="white" stroke="#424242"/>
<rect x="1" y="-1" width="60.4707" height="32.0749" transform="matrix(1 0 0 -1 168.2 538.075)" fill="url(#paint0_linear_3108_324)" stroke="#424242" stroke-width="2"/>
<rect x="198.409" y="531.836" width="1.7721" height="17.0582" transform="rotate(-180 198.409 531.836)" fill="white" stroke="white"/>
<rect x="202.547" y="531.836" width="1.7721" height="17.0582" transform="rotate(-180 202.547 531.836)" fill="white" stroke="white"/>
<rect x="1" y="-1" width="60.4707" height="32.0749" transform="matrix(1 0 0 -1 43 538.076)" fill="url(#paint1_linear_3108_324)" stroke="#424242" stroke-width="2"/>
<path d="M66.3681 531.354C66.7111 530.89 67.0886 530.355 67.4665 529.776C68.0925 528.817 68.7251 527.727 69.2028 526.626C69.6777 525.531 70.0151 524.39 70.0151 523.338C70.0151 522.288 69.6784 521.124 69.205 519.997C68.7287 518.863 68.0974 517.728 67.4724 516.723C67.0502 516.044 66.6285 515.421 66.255 514.894L82.7716 523.152L66.3681 531.354Z" fill="white" stroke="#424242"/>
<rect x="1" y="-1" width="60.4707" height="32.0749" transform="matrix(1 0 0 -1 230.8 538.075)" fill="url(#paint2_linear_3108_324)" stroke="#424242" stroke-width="2"/>
<circle cx="9.02912" cy="9.02912" r="8.52912" transform="matrix(1 0 0 -1 253.062 532.124)" fill="#FF0000" stroke="#424242"/>
<rect x="1" y="-1" width="60.4707" height="32.0749" transform="matrix(1 0 0 -1 293.4 538.075)" fill="url(#paint3_linear_3108_324)" stroke="#424242" stroke-width="2"/>
<rect x="317.716" y="516.347" width="12.9339" height="12.9339" fill="#FF0000"/>
<rect x="167.071" y="539.075" width="60.4707" height="32.0749" transform="rotate(-180 167.071 539.075)" fill="url(#paint4_linear_3108_324)" stroke="#424242" stroke-width="2"/>
<path fill-rule="evenodd" clip-rule="evenodd" d="M123.19 519.968H124.546H128.881V517.864H134.853C134.49 518.877 133.537 519.968 133.537 519.968L137.745 517.864H143.884V519.968H145.24H149.575V517.864H153.231V524.352C152.218 523.966 151.127 523.072 151.127 523.072L153.231 527.281V528.281H149.575V526.176H143.884V528.281H137.948C138.334 527.268 139.228 526.176 139.228 526.176L135.019 528.281H128.881V526.176H123.19V528.281H119.534V521.756C120.546 522.119 121.638 523.072 121.638 523.072L119.534 518.864V517.864H123.19V519.968ZM128.881 516.864V514.277H123.19V516.864H119.534H118.534V517.864V517.898L115.947 523.072C115.947 523.072 117.421 521.865 118.534 521.65V528.281V529.281H119.534H123.19V531.867H124.546H128.881V529.281H134.054L139.228 531.867C139.228 531.867 137.94 530.392 137.788 529.281H143.884V531.867H145.24H149.575V529.281H153.231H154.231V528.281V528.246L156.818 523.072C156.818 523.072 155.342 524.36 154.231 524.512V517.864V516.864H153.231H149.575V514.277H143.884V516.864H138.711L133.537 514.277C133.537 514.277 134.744 515.752 134.959 516.864H128.881Z" fill="white"/>
<g filter="url(#filter0_i_3108_324)">
<g filter="url(#filter1_d_3108_324)">
<g filter="url(#filter2_d_3108_324)">
<rect x="39.3208" y="53.4541" width="321.745" height="360.352" rx="20" fill="#FDFF83"/>
</g>
</g>
<path d="M65.8686 211.157H59.3823L59.3472 208.432H65.2358C66.2085 208.432 67.0581 208.268 67.7847 207.94C68.5112 207.612 69.0737 207.143 69.4722 206.534C69.8823 205.913 70.0874 205.174 70.0874 204.319C70.0874 203.381 69.9057 202.62 69.5425 202.034C69.1909 201.436 68.646 201.002 67.9077 200.733C67.1811 200.452 66.2554 200.311 65.1304 200.311H60.1382V223.127H56.7456V197.534H65.1304C66.4429 197.534 67.6147 197.668 68.646 197.938C69.6772 198.196 70.5503 198.606 71.2651 199.168C71.9917 199.719 72.5425 200.422 72.9175 201.278C73.2925 202.133 73.48 203.159 73.48 204.354C73.48 205.409 73.2104 206.364 72.6714 207.219C72.1323 208.063 71.3823 208.754 70.4214 209.293C69.4722 209.833 68.3589 210.178 67.0815 210.331L65.8686 211.157ZM65.7104 223.127H58.0464L59.9624 220.368H65.7104C66.7886 220.368 67.7026 220.18 68.4526 219.805C69.2143 219.43 69.7944 218.903 70.1929 218.223C70.5913 217.532 70.7905 216.717 70.7905 215.78C70.7905 214.831 70.6206 214.01 70.2807 213.319C69.9409 212.627 69.4077 212.094 68.6811 211.719C67.9546 211.344 67.0171 211.157 65.8686 211.157H61.0347L61.0698 208.432H67.6792L68.3999 209.417C69.6304 209.522 70.6733 209.874 71.5288 210.471C72.3843 211.057 73.0347 211.807 73.48 212.721C73.937 213.635 74.1655 214.643 74.1655 215.745C74.1655 217.338 73.8139 218.686 73.1108 219.788C72.4194 220.877 71.4409 221.709 70.1753 222.284C68.9097 222.846 67.4214 223.127 65.7104 223.127ZM94.6968 220.368V223.127H81.8999V220.368H94.6968ZM82.5679 197.534V223.127H79.1753V197.534H82.5679ZM117.126 209.522V211.139C117.126 213.061 116.886 214.784 116.406 216.307C115.925 217.831 115.234 219.125 114.332 220.192C113.429 221.258 112.345 222.073 111.08 222.635C109.826 223.198 108.419 223.479 106.861 223.479C105.349 223.479 103.96 223.198 102.695 222.635C101.441 222.073 100.351 221.258 99.4253 220.192C98.5112 219.125 97.8022 217.831 97.2983 216.307C96.7944 214.784 96.5425 213.061 96.5425 211.139V209.522C96.5425 207.6 96.7886 205.883 97.2807 204.372C97.7847 202.848 98.4936 201.553 99.4077 200.487C100.322 199.409 101.406 198.588 102.66 198.026C103.925 197.463 105.314 197.182 106.826 197.182C108.384 197.182 109.791 197.463 111.044 198.026C112.31 198.588 113.394 199.409 114.296 200.487C115.21 201.553 115.908 202.848 116.388 204.372C116.88 205.883 117.126 207.6 117.126 209.522ZM113.769 211.139V209.487C113.769 207.963 113.611 206.616 113.294 205.444C112.99 204.272 112.539 203.288 111.941 202.491C111.343 201.694 110.611 201.09 109.744 200.68C108.888 200.27 107.916 200.065 106.826 200.065C105.771 200.065 104.816 200.27 103.96 200.68C103.117 201.09 102.39 201.694 101.781 202.491C101.183 203.288 100.72 204.272 100.392 205.444C100.064 206.616 99.8999 207.963 99.8999 209.487V211.139C99.8999 212.674 100.064 214.034 100.392 215.217C100.72 216.389 101.189 217.379 101.798 218.188C102.419 218.985 103.152 219.588 103.996 219.999C104.851 220.409 105.806 220.614 106.861 220.614C107.962 220.614 108.941 220.409 109.796 219.999C110.652 219.588 111.373 218.985 111.958 218.188C112.556 217.379 113.007 216.389 113.312 215.217C113.617 214.034 113.769 212.674 113.769 211.139ZM137.658 214.989H141.033C140.857 216.606 140.394 218.053 139.644 219.331C138.894 220.608 137.833 221.622 136.462 222.372C135.091 223.11 133.38 223.479 131.33 223.479C129.83 223.479 128.464 223.198 127.234 222.635C126.015 222.073 124.966 221.276 124.087 220.245C123.208 219.202 122.529 217.954 122.048 216.5C121.58 215.036 121.345 213.407 121.345 211.614V209.065C121.345 207.272 121.58 205.649 122.048 204.196C122.529 202.731 123.214 201.477 124.105 200.434C125.007 199.391 126.091 198.588 127.357 198.026C128.623 197.463 130.046 197.182 131.628 197.182C133.562 197.182 135.197 197.545 136.533 198.272C137.869 198.999 138.906 200.006 139.644 201.295C140.394 202.573 140.857 204.055 141.033 205.743H137.658C137.494 204.547 137.189 203.522 136.744 202.667C136.298 201.799 135.666 201.131 134.845 200.663C134.025 200.194 132.953 199.959 131.628 199.959C130.492 199.959 129.49 200.176 128.623 200.61C127.767 201.043 127.046 201.659 126.46 202.456C125.886 203.252 125.453 204.208 125.16 205.321C124.867 206.434 124.72 207.67 124.72 209.03V211.614C124.72 212.868 124.849 214.045 125.107 215.147C125.376 216.249 125.781 217.215 126.32 218.047C126.859 218.879 127.544 219.536 128.376 220.016C129.208 220.485 130.193 220.719 131.33 220.719C132.771 220.719 133.919 220.491 134.775 220.034C135.63 219.577 136.275 218.92 136.708 218.065C137.154 217.209 137.47 216.184 137.658 214.989ZM149.048 197.534V223.127H145.656V197.534H149.048ZM164.499 197.534L153.865 209.469L147.888 215.674L147.326 212.053L151.826 207.096L160.421 197.534H164.499ZM161.23 223.127L151.755 210.647L153.777 207.958L165.273 223.127H161.23ZM171.9 197.534V223.127H168.507V197.534H171.9ZM197.757 197.534V223.127H194.347L181.462 203.387V223.127H178.07V197.534H181.462L194.4 217.327V197.534H197.757ZM207.162 197.534V223.127H203.769V197.534H207.162ZM217.884 209.047V211.825H206.423V209.047H217.884ZM219.624 197.534V200.311H206.423V197.534H219.624ZM243.373 209.522V211.139C243.373 213.061 243.132 214.784 242.652 216.307C242.171 217.831 241.48 219.125 240.578 220.192C239.675 221.258 238.591 222.073 237.326 222.635C236.072 223.198 234.666 223.479 233.107 223.479C231.595 223.479 230.207 223.198 228.941 222.635C227.687 222.073 226.597 221.258 225.671 220.192C224.757 219.125 224.048 217.831 223.544 216.307C223.041 214.784 222.789 213.061 222.789 211.139V209.522C222.789 207.6 223.035 205.883 223.527 204.372C224.031 202.848 224.74 201.553 225.654 200.487C226.568 199.409 227.652 198.588 228.906 198.026C230.171 197.463 231.56 197.182 233.072 197.182C234.63 197.182 236.037 197.463 237.291 198.026C238.556 198.588 239.64 199.409 240.542 200.487C241.457 201.553 242.154 202.848 242.634 204.372C243.126 205.883 243.373 207.6 243.373 209.522ZM240.015 211.139V209.487C240.015 207.963 239.857 206.616 239.541 205.444C239.236 204.272 238.785 203.288 238.187 202.491C237.589 201.694 236.857 201.09 235.99 200.68C235.134 200.27 234.162 200.065 233.072 200.065C232.017 200.065 231.062 200.27 230.207 200.68C229.363 201.09 228.636 201.694 228.027 202.491C227.429 203.288 226.966 204.272 226.638 205.444C226.31 206.616 226.146 207.963 226.146 209.487V211.139C226.146 212.674 226.31 214.034 226.638 215.217C226.966 216.389 227.435 217.379 228.044 218.188C228.666 218.985 229.398 219.588 230.242 219.999C231.097 220.409 232.052 220.614 233.107 220.614C234.208 220.614 235.187 220.409 236.042 219.999C236.898 219.588 237.619 218.985 238.205 218.188C238.802 217.379 239.253 216.389 239.558 215.217C239.863 214.034 240.015 212.674 240.015 211.139ZM276.296 210.383V219.752C275.98 220.221 275.476 220.749 274.785 221.334C274.093 221.909 273.138 222.413 271.919 222.846C270.712 223.268 269.154 223.479 267.244 223.479C265.685 223.479 264.249 223.209 262.937 222.67C261.636 222.12 260.505 221.323 259.544 220.28C258.595 219.225 257.857 217.948 257.33 216.448C256.814 214.936 256.556 213.225 256.556 211.315V209.329C256.556 207.418 256.779 205.713 257.224 204.213C257.681 202.713 258.349 201.442 259.228 200.399C260.107 199.344 261.185 198.547 262.462 198.008C263.74 197.458 265.205 197.182 266.857 197.182C268.814 197.182 270.449 197.522 271.761 198.202C273.085 198.87 274.117 199.795 274.855 200.979C275.605 202.163 276.085 203.51 276.296 205.022H272.904C272.751 204.096 272.447 203.252 271.99 202.491C271.544 201.729 270.906 201.12 270.074 200.663C269.242 200.194 268.169 199.959 266.857 199.959C265.673 199.959 264.648 200.176 263.781 200.61C262.914 201.043 262.199 201.665 261.636 202.473C261.074 203.282 260.652 204.26 260.371 205.409C260.101 206.557 259.966 207.852 259.966 209.293V211.315C259.966 212.792 260.136 214.11 260.476 215.27C260.828 216.43 261.326 217.42 261.97 218.241C262.615 219.049 263.382 219.665 264.273 220.086C265.175 220.508 266.171 220.719 267.261 220.719C268.468 220.719 269.447 220.62 270.197 220.42C270.947 220.209 271.533 219.963 271.955 219.682C272.376 219.389 272.699 219.114 272.921 218.856V213.125H266.998V210.383H276.296ZM301.626 209.522V211.139C301.626 213.061 301.386 214.784 300.906 216.307C300.425 217.831 299.734 219.125 298.832 220.192C297.929 221.258 296.845 222.073 295.58 222.635C294.326 223.198 292.919 223.479 291.361 223.479C289.849 223.479 288.46 223.198 287.195 222.635C285.941 222.073 284.851 221.258 283.925 220.192C283.011 219.125 282.302 217.831 281.798 216.307C281.294 214.784 281.042 213.061 281.042 211.139V209.522C281.042 207.6 281.289 205.883 281.781 204.372C282.285 202.848 282.994 201.553 283.908 200.487C284.822 199.409 285.906 198.588 287.16 198.026C288.425 197.463 289.814 197.182 291.326 197.182C292.884 197.182 294.291 197.463 295.544 198.026C296.81 198.588 297.894 199.409 298.796 200.487C299.71 201.553 300.408 202.848 300.888 204.372C301.38 205.883 301.626 207.6 301.626 209.522ZM298.269 211.139V209.487C298.269 207.963 298.111 206.616 297.794 205.444C297.49 204.272 297.039 203.288 296.441 202.491C295.843 201.694 295.111 201.09 294.244 200.68C293.388 200.27 292.416 200.065 291.326 200.065C290.271 200.065 289.316 200.27 288.46 200.68C287.617 201.09 286.89 201.694 286.281 202.491C285.683 203.288 285.22 204.272 284.892 205.444C284.564 206.616 284.4 207.963 284.4 209.487V211.139C284.4 212.674 284.564 214.034 284.892 215.217C285.22 216.389 285.689 217.379 286.298 218.188C286.919 218.985 287.652 219.588 288.496 219.999C289.351 220.409 290.306 220.614 291.361 220.614C292.462 220.614 293.441 220.409 294.296 219.999C295.152 219.588 295.873 218.985 296.458 218.188C297.056 217.379 297.507 216.389 297.812 215.217C298.117 214.034 298.269 212.674 298.269 211.139ZM322.966 220.368V223.127H309.414V220.368H322.966ZM310.099 197.534V223.127H306.707V197.534H310.099ZM321.173 208.538V211.297H309.414V208.538H321.173ZM322.791 197.534V200.311H309.414V197.534H322.791ZM340.808 216.659C340.808 216.061 340.714 215.534 340.527 215.077C340.351 214.608 340.035 214.186 339.578 213.811C339.132 213.436 338.511 213.079 337.714 212.739C336.929 212.399 335.933 212.053 334.726 211.702C333.46 211.327 332.318 210.911 331.298 210.454C330.279 209.985 329.406 209.452 328.679 208.854C327.953 208.256 327.396 207.571 327.009 206.797C326.623 206.024 326.429 205.139 326.429 204.143C326.429 203.147 326.634 202.227 327.044 201.383C327.455 200.54 328.041 199.807 328.802 199.186C329.576 198.553 330.496 198.061 331.562 197.709C332.628 197.358 333.818 197.182 335.13 197.182C337.052 197.182 338.681 197.551 340.017 198.29C341.365 199.016 342.39 199.971 343.093 201.155C343.796 202.327 344.148 203.581 344.148 204.917H340.773C340.773 203.956 340.568 203.106 340.158 202.368C339.748 201.618 339.126 201.032 338.294 200.61C337.462 200.176 336.408 199.959 335.13 199.959C333.923 199.959 332.927 200.141 332.142 200.504C331.357 200.868 330.771 201.36 330.384 201.981C330.009 202.602 329.822 203.311 329.822 204.108C329.822 204.647 329.933 205.139 330.156 205.584C330.39 206.018 330.748 206.422 331.228 206.797C331.72 207.172 332.341 207.518 333.091 207.834C333.853 208.151 334.761 208.456 335.816 208.749C337.269 209.159 338.523 209.616 339.578 210.12C340.632 210.624 341.5 211.192 342.179 211.825C342.871 212.446 343.38 213.155 343.708 213.952C344.048 214.737 344.218 215.627 344.218 216.624C344.218 217.667 344.007 218.61 343.585 219.454C343.164 220.297 342.56 221.018 341.775 221.616C340.99 222.213 340.046 222.676 338.945 223.004C337.855 223.321 336.636 223.479 335.289 223.479C334.105 223.479 332.939 223.315 331.791 222.987C330.654 222.659 329.617 222.167 328.679 221.51C327.753 220.854 327.009 220.045 326.447 219.084C325.896 218.112 325.621 216.987 325.621 215.709H328.996C328.996 216.588 329.166 217.344 329.505 217.977C329.845 218.598 330.308 219.114 330.894 219.524C331.492 219.934 332.166 220.239 332.916 220.438C333.677 220.625 334.468 220.719 335.289 220.719C336.472 220.719 337.474 220.555 338.294 220.227C339.115 219.899 339.736 219.43 340.158 218.821C340.591 218.211 340.808 217.491 340.808 216.659ZM173.447 251.538V254.297H159.595V251.538H173.447ZM160.123 240.534V266.127H156.73V240.534H160.123ZM176.4 240.534V266.127H173.025V240.534H176.4ZM198.689 263.368V266.127H185.136V263.368H198.689ZM185.822 240.534V266.127H182.429V240.534H185.822ZM196.896 251.538V254.297H185.136V251.538H196.896ZM198.513 240.534V243.311H185.136V240.534H198.513ZM212.365 242.801L203.892 266.127H200.429L210.185 240.534H212.417L212.365 242.801ZM219.466 266.127L210.976 242.801L210.923 240.534H213.156L222.947 266.127H219.466ZM219.027 256.653V259.43H204.648V256.653H219.027ZM226.374 240.534H234.847C236.769 240.534 238.392 240.827 239.716 241.413C241.052 241.999 242.066 242.866 242.757 244.014C243.46 245.151 243.812 246.551 243.812 248.215C243.812 249.387 243.572 250.459 243.091 251.432C242.623 252.393 241.943 253.213 241.052 253.893C240.173 254.561 239.119 255.059 237.888 255.387L236.939 255.756H228.976L228.941 252.997H234.953C236.171 252.997 237.185 252.786 237.994 252.364C238.802 251.93 239.412 251.35 239.822 250.624C240.232 249.897 240.437 249.094 240.437 248.215C240.437 247.231 240.244 246.37 239.857 245.631C239.47 244.893 238.861 244.325 238.029 243.926C237.208 243.516 236.148 243.311 234.847 243.311H229.767V266.127H226.374V240.534ZM241.333 266.127L235.111 254.526L238.644 254.508L244.955 265.917V266.127H241.333Z" fill="black"/>
</g>
<g filter="url(#filter3_i_3108_324)">
<path d="M43.6523 19.4258H48.7734C49.3984 19.4258 49.9883 19.6914 50.543 20.2227C51.1055 20.7461 51.3867 21.3828 51.3867 22.1328C51.3867 22.4141 51.2852 22.6523 51.082 22.8477C50.8867 23.043 50.668 23.1406 50.4258 23.1406C50.0898 23.1406 49.8594 23.0664 49.7344 22.918C49.6094 22.7617 49.4883 22.4766 49.3711 22.0625C49.2617 21.6484 49.0117 21.4414 48.6211 21.4414H43.7578C43.5234 21.4414 43.4062 21.5156 43.4062 21.6641C43.4062 21.7578 43.457 21.8672 43.5586 21.9922L50.8594 31.332C51.2109 31.7852 51.3867 32.2695 51.3867 32.7852C51.3867 33.3711 51.1719 33.8867 50.7422 34.332C50.3203 34.7773 49.8477 35 49.3242 35H44.0156C43.3125 35 42.6992 34.7344 42.1758 34.2031C41.6602 33.6641 41.4023 33.0742 41.4023 32.4336C41.4023 31.6992 41.7461 31.332 42.4336 31.332C42.6992 31.332 42.9258 31.4297 43.1133 31.625C43.3008 31.8125 43.3945 32.0352 43.3945 32.293C43.3945 32.5039 43.4648 32.6797 43.6055 32.8203C43.7539 32.9609 43.9375 33.0312 44.1562 33.0312H49.0547C49.2656 33.0312 49.3711 32.9492 49.3711 32.7852C49.3711 32.707 49.3203 32.6055 49.2188 32.4805L41.9297 23.1406C41.5859 22.6953 41.4141 22.2109 41.4141 21.6875C41.4141 21.0781 41.6328 20.5508 42.0703 20.1055C42.5078 19.6523 43.0352 19.4258 43.6523 19.4258ZM58.8633 27.8984H62.7188C62.9297 27.8984 63.2344 27.9453 63.6328 28.0391L63.6094 26.6445C63.6094 26.3711 63.5117 26.1406 63.3164 25.9531C63.1289 25.7578 62.8984 25.6602 62.625 25.6602H58.8867C58.6211 25.6602 58.3906 25.5625 58.1953 25.3672C58 25.1719 57.9023 24.9414 57.9023 24.6758C57.9023 24.4023 57.9961 24.1719 58.1836 23.9844C58.3789 23.7891 58.6133 23.6914 58.8867 23.6914H62.625C63.4375 23.6914 64.1289 23.9766 64.6992 24.5469C65.2773 25.1172 65.5781 25.8164 65.6016 26.6445L65.8477 34.0156C65.8477 34.2891 65.75 34.5234 65.5547 34.7188C65.3594 34.9062 65.1289 35 64.8633 35C64.582 35 64.3438 34.9062 64.1484 34.7188C63.9531 34.5234 63.8555 34.2891 63.8555 34.0156L62.1914 35H58.8633C58.0352 35 57.332 34.7109 56.7539 34.1328C56.1758 33.5547 55.8867 32.8516 55.8867 32.0234V30.875C55.8867 30.0547 56.1758 29.3555 56.7539 28.7773C57.3398 28.1914 58.043 27.8984 58.8633 27.8984ZM63.7852 31.7305L63.7266 30.8984C63.7188 30.6172 63.6211 30.3828 63.4336 30.1953C63.2461 30.0078 63.0156 29.9141 62.7422 29.9141H58.8633C58.5898 29.9141 58.3555 30.0117 58.1602 30.207C57.9727 30.3945 57.8789 30.625 57.8789 30.8984V32C57.8789 32.2656 57.9766 32.4961 58.1719 32.6914C58.3672 32.8867 58.5977 32.9844 58.8633 32.9844H61.6406L63.7852 31.7305ZM77.3555 35H75.3867C74.5742 35 73.875 34.7109 73.2891 34.1328C72.7031 33.5547 72.4102 32.8594 72.4102 32.0469V25.6602H71.4023C71.1289 25.6602 70.8945 25.5664 70.6992 25.3789C70.5117 25.1914 70.418 24.957 70.418 24.6758C70.418 24.4023 70.5117 24.1719 70.6992 23.9844C70.8945 23.7891 71.1289 23.6914 71.4023 23.6914H72.4336V21.2773C72.4336 21.0039 72.5273 20.7734 72.7148 20.5859C72.9102 20.3906 73.1445 20.293 73.418 20.293C73.6758 20.293 73.9023 20.3906 74.0977 20.5859C74.3008 20.7812 74.4023 21.0117 74.4023 21.2773V23.6914H78.3633C78.6289 23.6914 78.8594 23.7891 79.0547 23.9844C79.25 24.1797 79.3477 24.4102 79.3477 24.6758C79.3477 24.9492 79.25 25.1836 79.0547 25.3789C78.8594 25.5664 78.6289 25.6602 78.3633 25.6602H74.3789V32.0469C74.3789 32.3125 74.4766 32.543 74.6719 32.7383C74.875 32.9336 75.1133 33.0312 75.3867 33.0312H77.3086C77.832 33.0312 78.1797 32.75 78.3516 32.1875C78.5234 31.6172 78.8555 31.332 79.3477 31.332C79.6367 31.332 79.8711 31.4297 80.0508 31.625C80.2383 31.8125 80.332 32.0508 80.332 32.3398C80.332 32.9336 80.0508 33.5273 79.4883 34.1211C78.9336 34.707 78.2227 35 77.3555 35ZM94.8633 27.2422V31.4023C94.8633 32.2852 94.4453 33.1016 93.6094 33.8516C92.7812 34.6016 91.9258 34.9766 91.043 34.9766H88.7344C87.8359 34.9766 86.9766 34.5977 86.1562 33.8398C85.3359 33.0742 84.9258 32.2617 84.9258 31.4023V27.2422C84.9258 26.3828 85.3242 25.5742 86.1211 24.8164C86.9258 24.0508 87.7969 23.668 88.7344 23.668H91.043C91.9258 23.6523 92.7812 24.0195 93.6094 24.7695C94.4453 25.5195 94.8633 26.3438 94.8633 27.2422ZM86.918 27.3242V31.3086C86.918 31.668 87.0469 31.9531 87.3047 32.1641L88.043 32.7969C88.207 32.9375 88.4375 33.0078 88.7344 33.0078H91.0195C91.3555 33.0078 91.6602 32.8867 91.9336 32.6445L92.5312 32.1172C92.7734 31.9297 92.8945 31.668 92.8945 31.332V27.3477C92.8945 26.957 92.7734 26.668 92.5312 26.4805L91.8398 25.9297C91.6055 25.7344 91.332 25.6367 91.0195 25.6367H88.9805C88.5352 25.6367 88.1914 25.7422 87.9492 25.9531L87.2812 26.5273C87.0391 26.7305 86.918 26.9961 86.918 27.3242ZM102.211 23.6914H106.723C107.426 23.6914 108.047 23.9023 108.586 24.3242C109.125 24.7383 109.395 25.1445 109.395 25.543C109.395 25.8242 109.293 26.0547 109.09 26.2344C108.895 26.4141 108.676 26.5039 108.434 26.5039C108.121 26.5039 107.836 26.3633 107.578 26.082C107.32 25.8008 107.051 25.6602 106.77 25.6602H102.316C101.879 25.6602 101.66 25.8438 101.66 26.2109C101.66 26.4688 101.805 26.6641 102.094 26.7969L107.332 29.1172C107.863 29.3516 108.297 29.7305 108.633 30.2539C108.977 30.7695 109.148 31.3438 109.148 31.9766C109.148 32.8203 108.848 33.5352 108.246 34.1211C107.652 34.707 106.977 35 106.219 35H102.234C101.547 35 100.906 34.793 100.312 34.3789C99.7266 33.9648 99.4336 33.5625 99.4336 33.1719C99.4336 32.9141 99.5273 32.6875 99.7148 32.4922C99.9102 32.2891 100.16 32.1875 100.465 32.1875C100.715 32.1875 100.98 32.3281 101.262 32.6094C101.551 32.8906 101.965 33.0312 102.504 33.0312H106.172C106.461 33.0312 106.703 32.9219 106.898 32.7031C107.094 32.4766 107.191 32.2188 107.191 31.9297C107.191 31.4844 106.973 31.1641 106.535 30.9688L101.25 28.5898C100.742 28.3633 100.352 28.0352 100.078 27.6055C99.8047 27.1758 99.668 26.7383 99.668 26.293C99.668 25.5898 99.9102 24.9805 100.395 24.4648C100.887 23.9492 101.492 23.6914 102.211 23.6914ZM113.941 34.0156V20.4102C113.941 20.1445 114.035 19.918 114.223 19.7305C114.418 19.543 114.652 19.4492 114.926 19.4492C115.199 19.4492 115.43 19.5469 115.617 19.7422C115.812 19.9297 115.91 20.1602 115.91 20.4336V25.4023L117.492 24.3711C118.211 23.918 118.852 23.6914 119.414 23.6914H120.633C121.438 23.6914 122.129 23.9805 122.707 24.5586C123.285 25.1289 123.586 25.8242 123.609 26.6445L123.855 34.0156C123.863 34.2891 123.77 34.5234 123.574 34.7188C123.379 34.9062 123.145 35 122.871 35C122.598 35 122.367 34.9023 122.18 34.707C121.992 34.5039 121.895 34.2734 121.887 34.0156L121.641 26.6211C121.633 26.3555 121.531 26.125 121.336 25.9297C121.141 25.7344 120.906 25.6367 120.633 25.6367H119.531C119.281 25.6367 119.008 25.7344 118.711 25.9297L115.91 27.7578V34.0156C115.91 34.2891 115.812 34.5234 115.617 34.7188C115.43 34.9062 115.199 35 114.926 35C114.652 35 114.418 34.9062 114.223 34.7188C114.035 34.5234 113.941 34.2891 113.941 34.0156ZM132.41 18.5586H133.441C133.715 18.5586 133.945 18.6562 134.133 18.8516C134.328 19.0391 134.426 19.2695 134.426 19.543V20.3867C134.426 20.6602 134.328 20.8984 134.133 21.1016C133.945 21.2969 133.715 21.3945 133.441 21.3945H132.387C132.105 21.3945 131.867 21.293 131.672 21.0898C131.484 20.8867 131.395 20.6602 131.402 20.4102L131.426 19.543C131.426 19.2695 131.52 19.0391 131.707 18.8516C131.902 18.6562 132.137 18.5586 132.41 18.5586ZM136.418 34.9766H130.418C130.145 34.9766 129.91 34.8828 129.715 34.6953C129.527 34.5 129.434 34.2656 129.434 33.9922C129.434 33.7266 129.527 33.4961 129.715 33.3008C129.91 33.1055 130.145 33.0078 130.418 33.0078H132.434V25.6602H130.441C130.168 25.6602 129.934 25.5625 129.738 25.3672C129.551 25.1719 129.457 24.9414 129.457 24.6758C129.457 24.4023 129.551 24.168 129.738 23.9727C129.934 23.7695 130.168 23.668 130.441 23.668H133.441C133.715 23.668 133.945 23.7695 134.133 23.9727C134.328 24.168 134.426 24.4023 134.426 24.6758V33.0078H136.395C136.668 33.0078 136.902 33.1055 137.098 33.3008C137.301 33.4883 137.402 33.7188 137.402 33.9922C137.402 34.2656 137.305 34.5 137.109 34.6953C136.914 34.8828 136.684 34.9766 136.418 34.9766ZM158.449 32.0234V28.9062C158.449 28.6328 158.543 28.4023 158.73 28.2148C158.926 28.0195 159.16 27.9219 159.434 27.9219C159.707 27.9219 159.938 28.0195 160.125 28.2148C160.32 28.4023 160.418 28.6328 160.418 28.9062V32.0469C160.418 32.3125 160.516 32.5391 160.711 32.7266C160.906 32.9141 161.145 33.0078 161.426 33.0078H163.418C163.691 33.0078 163.926 32.9141 164.121 32.7266C164.324 32.5312 164.426 32.2969 164.426 32.0234V20.4102C164.426 20.1367 164.52 19.9062 164.707 19.7188C164.895 19.5234 165.121 19.4258 165.387 19.4258C165.652 19.4258 165.887 19.5312 166.09 19.7422C166.293 19.9531 166.395 20.1914 166.395 20.457V32.0234C166.395 32.8516 166.094 33.5547 165.492 34.1328C164.891 34.7109 164.199 35 163.418 35H161.426C160.605 35 159.902 34.707 159.316 34.1211C158.738 33.5352 158.449 32.8359 158.449 32.0234ZM172.02 34.0156V19.4258H178.98C179.785 19.4258 180.477 19.7188 181.055 20.3047C181.641 20.8906 181.934 21.5898 181.934 22.4023V23.5273C181.934 24.3477 181.645 25.0508 181.066 25.6367C180.488 26.2148 179.793 26.5039 178.98 26.5039H177.727L181.758 33.418C181.883 33.6211 181.945 33.8242 181.945 34.0273C181.945 34.293 181.844 34.5234 181.641 34.7188C181.438 34.9062 181.207 35 180.949 35C180.559 35 180.262 34.8242 180.059 34.4727L175.43 26.5039H174.012V34.0156C174.012 34.2891 173.91 34.5234 173.707 34.7188C173.512 34.9062 173.277 35 173.004 35C172.73 35 172.496 34.9062 172.301 34.7188C172.113 34.5234 172.02 34.2891 172.02 34.0156ZM173.988 24.5352H178.98C179.254 24.5352 179.484 24.4414 179.672 24.2539C179.867 24.0586 179.965 23.8242 179.965 23.5508V22.4023C179.965 22.1289 179.867 21.8984 179.672 21.7109C179.484 21.5156 179.254 21.418 178.98 21.418H173.988V24.5352ZM190.441 28.7891H192.434C192.699 28.7891 192.93 28.8867 193.125 29.082C193.32 29.2695 193.418 29.5 193.418 29.7734V31.4492C193.418 31.7227 193.32 31.9609 193.125 32.1641C192.938 32.3594 192.707 32.457 192.434 32.457H190.418C190.145 32.457 189.91 32.3594 189.715 32.1641C189.527 31.9688 189.434 31.7383 189.434 31.4727V29.7734C189.434 29.5 189.531 29.2695 189.727 29.082C189.922 28.8867 190.16 28.7891 190.441 28.7891ZM200.965 33.0781V21.3008C200.965 20.7852 201.152 20.3398 201.527 19.9648C201.902 19.5898 202.348 19.4023 202.863 19.4023H209.004C209.512 19.4023 209.949 19.5898 210.316 19.9648C210.691 20.3398 210.879 20.7852 210.879 21.3008V33.0781C210.879 33.6016 210.691 34.0508 210.316 34.4258C209.949 34.793 209.504 34.9766 208.98 34.9766H202.863C202.332 34.9766 201.883 34.793 201.516 34.4258C201.148 34.0508 200.965 33.6016 200.965 33.0781ZM208.934 33.0078V21.3945H202.934V33.0078H208.934ZM219.457 28.7891H221.449C221.715 28.7891 221.945 28.8867 222.141 29.082C222.336 29.2695 222.434 29.5 222.434 29.7734V31.4492C222.434 31.7227 222.336 31.9609 222.141 32.1641C221.953 32.3594 221.723 32.457 221.449 32.457H219.434C219.16 32.457 218.926 32.3594 218.73 32.1641C218.543 31.9688 218.449 31.7383 218.449 31.4727V29.7734C218.449 29.5 218.547 29.2695 218.742 29.082C218.938 28.8867 219.176 28.7891 219.457 28.7891ZM229.98 33.0781V21.3008C229.98 20.7852 230.168 20.3398 230.543 19.9648C230.918 19.5898 231.363 19.4023 231.879 19.4023H238.02C238.527 19.4023 238.965 19.5898 239.332 19.9648C239.707 20.3398 239.895 20.7852 239.895 21.3008V33.0781C239.895 33.6016 239.707 34.0508 239.332 34.4258C238.965 34.793 238.52 34.9766 237.996 34.9766H231.879C231.348 34.9766 230.898 34.793 230.531 34.4258C230.164 34.0508 229.98 33.6016 229.98 33.0781ZM237.949 33.0078V21.3945H231.949V33.0078H237.949ZM245.449 33.0078H248.473V21.3945H245.496C245.223 21.3945 244.988 21.3008 244.793 21.1133C244.605 20.918 244.512 20.6836 244.512 20.4102C244.512 20.1367 244.605 19.9062 244.793 19.7188C244.988 19.5234 245.223 19.4258 245.496 19.4258H250.441V33.0078H252.41V28.9062C252.41 28.6406 252.504 28.4102 252.691 28.2148C252.887 28.0195 253.121 27.9219 253.395 27.9219C253.668 27.9219 253.898 28.0195 254.086 28.2148C254.281 28.4023 254.379 28.6328 254.379 28.9062V33.9922C254.379 34.2656 254.281 34.5 254.086 34.6953C253.898 34.8828 253.668 34.9766 253.395 34.9766H245.449C245.176 34.9766 244.941 34.8789 244.746 34.6836C244.559 34.4805 244.465 34.2422 244.465 33.9688C244.465 33.7031 244.559 33.4766 244.746 33.2891C244.941 33.1016 245.176 33.0078 245.449 33.0078Z" fill="#FAFF00"/>
<path d="M50.543 20.2227L46.3929 24.5559L46.424 24.5857L46.4556 24.6151L50.543 20.2227ZM51.082 22.8477L46.9234 18.5227L46.881 18.5634L46.8394 18.605L51.082 22.8477ZM49.7344 22.918L45.0492 26.6661L45.0963 26.7251L45.1449 26.7828L49.7344 22.918ZM49.3711 22.0625L43.5701 23.5948L43.5835 23.6458L43.5979 23.6964L49.3711 22.0625ZM43.5586 21.9922L48.2858 18.2971L48.2509 18.2525L48.2153 18.2086L43.5586 21.9922ZM50.8594 31.332L55.5999 27.654L55.5932 27.6455L55.5865 27.6369L50.8594 31.332ZM50.7422 34.332L46.4245 30.1658L46.4054 30.1856L46.3865 30.2056L50.7422 34.332ZM42.1758 34.2031L37.8399 38.3505L37.8706 38.3826L37.9018 38.4142L42.1758 34.2031ZM43.1133 31.625L38.785 35.7802L38.8274 35.8244L38.8706 35.8676L43.1133 31.625ZM43.6055 32.8203L39.3628 37.063L39.4202 37.1203L39.479 37.176L43.6055 32.8203ZM49.2188 32.4805L44.4887 36.1719L44.5249 36.2183L44.5621 36.264L49.2188 32.4805ZM41.9297 23.1406L37.1801 26.8069L37.1899 26.8195L37.1997 26.8321L41.9297 23.1406ZM42.0703 20.1055L46.3503 24.3104L46.3686 24.2918L46.3867 24.273L42.0703 20.1055ZM43.6523 25.4258H48.7734V13.4258H43.6523V25.4258ZM48.7734 25.4258C48.2065 25.4258 47.6726 25.2993 47.2209 25.0959C46.7887 24.9012 46.5188 24.6764 46.3929 24.5559L54.6931 15.8895C53.2913 14.5469 51.2819 13.4258 48.7734 13.4258V25.4258ZM46.4556 24.6151C46.2034 24.3804 45.9081 24.0169 45.6874 23.5171C45.4651 23.014 45.3867 22.5272 45.3867 22.1328H57.3867C57.3867 19.6709 56.3788 17.4572 54.6304 15.8302L46.4556 24.6151ZM45.3867 22.1328C45.3867 21.5349 45.4984 20.8564 45.791 20.1699C46.0835 19.4836 46.4949 18.9347 46.9234 18.5227L55.2407 27.1727C56.6177 25.8486 57.3867 24.0497 57.3867 22.1328H45.3867ZM46.8394 18.605C47.1819 18.2625 47.6715 17.8806 48.3256 17.5886C48.9945 17.2899 49.7136 17.1406 50.4258 17.1406V29.1406C52.4869 29.1406 54.176 28.239 55.3247 27.0903L46.8394 18.605ZM50.4258 17.1406C50.6591 17.1406 51.1806 17.1614 51.8402 17.3738C52.5324 17.5967 53.5007 18.0757 54.3238 19.0532L45.1449 26.7828C47.0187 29.0079 49.5558 29.1406 50.4258 29.1406V17.1406ZM54.4196 19.1698C54.6417 19.4475 54.7908 19.6914 54.8819 19.8549C54.9756 20.0228 55.037 20.158 55.0725 20.2417C55.1398 20.4002 55.1586 20.479 55.1443 20.4286L43.5979 23.6964C43.7396 24.1971 44.1171 25.5011 45.0492 26.6661L54.4196 19.1698ZM55.1721 20.5302C54.8989 19.496 54.2835 18.0977 52.9284 16.9755C51.5196 15.8088 49.9179 15.4414 48.6211 15.4414V27.4414C47.7149 27.4414 46.4335 27.1775 45.2747 26.2178C44.1696 25.3027 43.7339 24.215 43.5701 23.5948L55.1721 20.5302ZM48.6211 15.4414H43.7578V27.4414H48.6211V15.4414ZM43.7578 15.4414C43.2007 15.4414 41.7578 15.4947 40.2838 16.4282C38.347 17.6548 37.4062 19.7069 37.4062 21.6641H49.4062C49.4062 22.4257 49.2516 23.3848 48.7377 24.3611C48.2146 25.3551 47.4684 26.0821 46.7045 26.566C45.3477 27.4253 44.0805 27.4414 43.7578 27.4414V15.4414ZM37.4062 21.6641C37.4062 23.8241 38.4971 25.2775 38.9019 25.7757L48.2153 18.2086C48.3798 18.4111 48.6466 18.7733 48.8864 19.2897C49.1272 19.8084 49.4062 20.6259 49.4062 21.6641H37.4062ZM38.8314 25.6873L46.1322 35.0272L55.5865 27.6369L48.2858 18.2971L38.8314 25.6873ZM46.1189 35.01C45.9545 34.7982 45.7626 34.4893 45.6148 34.082C45.4644 33.6676 45.3867 33.2249 45.3867 32.7852H57.3867C57.3867 30.7879 56.671 29.0346 55.5999 27.654L46.1189 35.01ZM45.3867 32.7852C45.3867 32.3254 45.4751 31.8126 45.6871 31.3036C45.8967 30.8007 46.1761 30.4233 46.4245 30.1658L55.0599 38.4982C56.5019 37.0038 57.3867 35.0191 57.3867 32.7852H45.3867ZM46.3865 30.2056C46.6012 29.9789 46.9688 29.6621 47.5143 29.4051C48.0793 29.139 48.7036 29 49.3242 29V41C51.7798 41 53.7548 39.8762 55.0979 38.4585L46.3865 30.2056ZM49.3242 29H44.0156V41H49.3242V29ZM44.0156 29C44.4409 29 44.928 29.0849 45.413 29.295C45.8909 29.502 46.2332 29.7723 46.4497 29.992L37.9018 38.4142C39.4768 40.0127 41.6005 41 44.0156 41V29ZM46.5116 30.0558C46.6645 30.2156 46.8995 30.5097 47.0935 30.9534C47.2942 31.4126 47.4023 31.9227 47.4023 32.4336H35.4023C35.4023 34.872 36.4447 36.8918 37.8399 38.3505L46.5116 30.0558ZM47.4023 32.4336C47.4023 32.8964 47.3018 34.3604 46.0403 35.708C44.709 37.13 43.1197 37.332 42.4336 37.332V25.332C41.06 25.332 38.9551 25.7176 37.28 27.5069C35.6747 29.2216 35.4023 31.2364 35.4023 32.4336H47.4023ZM42.4336 37.332C41.813 37.332 41.1206 37.2139 40.4278 36.9152C39.7374 36.6176 39.1912 36.2033 38.785 35.7802L47.4416 27.4698C46.1473 26.1216 44.3682 25.332 42.4336 25.332V37.332ZM38.8706 35.8676C38.4693 35.4663 38.0769 34.9319 37.7944 34.261C37.5105 33.5867 37.3945 32.9093 37.3945 32.293H49.3945C49.3945 30.3938 48.6327 28.6592 47.3559 27.3824L38.8706 35.8676ZM37.3945 32.293C37.3945 33.9881 38.0234 35.7236 39.3628 37.063L47.8481 28.5777C48.3228 29.0524 48.7364 29.6503 49.0181 30.3547C49.2971 31.052 49.3945 31.7221 49.3945 32.293H37.3945ZM39.479 37.176C40.8245 38.4507 42.52 39.0312 44.1562 39.0312V27.0312C44.698 27.0312 45.3342 27.1202 46.0004 27.3754C46.6737 27.6333 47.2576 28.0152 47.7319 28.4646L39.479 37.176ZM44.1562 39.0312H49.0547V27.0312H44.1562V39.0312ZM49.0547 39.0312C49.7723 39.0312 51.4146 38.92 52.9756 37.7058C54.8232 36.2689 55.3711 34.251 55.3711 32.7852H43.3711C43.3711 31.4833 43.8663 29.5885 45.6083 28.2336C47.0639 27.1015 48.548 27.0312 49.0547 27.0312V39.0312ZM55.3711 32.7852C55.3711 30.4709 54.0789 28.9474 53.8754 28.6969L44.5621 36.264C44.4415 36.1156 44.1993 35.7993 43.9664 35.3337C43.7503 34.9014 43.3711 34.0028 43.3711 32.7852H55.3711ZM53.9488 28.789L46.6597 19.4492L37.1997 26.8321L44.4887 36.1719L53.9488 28.789ZM46.6792 19.4743C46.8584 19.7064 47.0523 20.0277 47.1975 20.4369C47.3445 20.8509 47.4141 21.2784 47.4141 21.6875H35.4141C35.4141 23.6396 36.0903 25.3951 37.1801 26.8069L46.6792 19.4743ZM47.4141 21.6875C47.4141 22.118 47.3331 22.6207 47.1202 23.1339C46.9085 23.6443 46.62 24.036 46.3503 24.3104L37.7903 15.9005C36.2806 17.4372 35.4141 19.4628 35.4141 21.6875H47.4141ZM46.3867 24.273C46.1061 24.5636 45.6994 24.8778 45.1624 25.1085C44.6228 25.3403 44.096 25.4258 43.6523 25.4258V13.4258C41.37 13.4258 39.2959 14.3409 37.7539 15.9379L46.3867 24.273ZM63.6328 28.0391L62.2586 33.8796L69.7615 35.645L69.632 27.9382L63.6328 28.0391ZM63.6094 26.6445H57.6094V26.6949L57.6102 26.7454L63.6094 26.6445ZM63.3164 25.9531L58.9881 30.1083L59.0729 30.1966L59.1612 30.2814L63.3164 25.9531ZM64.6992 24.5469L60.4566 28.7895L60.471 28.8039L60.4855 28.8183L64.6992 24.5469ZM65.6016 26.6445L59.604 26.8143L59.6044 26.8295L59.6049 26.8447L65.6016 26.6445ZM65.8477 34.0156H71.8477V33.9155L71.8443 33.8154L65.8477 34.0156ZM65.5547 34.7188L69.7099 39.0471L69.754 39.0047L69.7973 38.9614L65.5547 34.7188ZM64.1484 34.7188L59.9058 38.9614L59.9491 39.0047L59.9932 39.0471L64.1484 34.7188ZM63.8555 34.0156H69.8555V23.4951L60.8006 28.8515L63.8555 34.0156ZM62.1914 35V41H63.8332L65.2462 40.1641L62.1914 35ZM63.7852 31.7305L66.8137 36.9101L70.0322 35.0282L69.7703 31.309L63.7852 31.7305ZM63.7266 30.8984L57.7289 31.065L57.7324 31.1926L57.7414 31.3199L63.7266 30.8984ZM61.6406 32.9844V38.9844H63.266L64.6691 38.164L61.6406 32.9844ZM58.8633 33.8984H62.7188V21.8984H58.8633V33.8984ZM62.7188 33.8984C62.555 33.8984 62.4287 33.8896 62.3513 33.8826C62.2717 33.8753 62.2172 33.8675 62.1931 33.8638C62.1497 33.8572 62.166 33.8578 62.2586 33.8796L65.007 22.1986C64.4955 22.0782 63.6434 21.8984 62.7188 21.8984V33.8984ZM69.632 27.9382L69.6085 26.5437L57.6102 26.7454L57.6337 28.1399L69.632 27.9382ZM69.6094 26.6445C69.6094 24.7557 68.8587 22.9564 67.4716 21.6248L59.1612 30.2814C58.7209 29.8588 58.3051 29.3 58.0116 28.6075C57.7187 27.9162 57.6094 27.2372 57.6094 26.6445H69.6094ZM67.6447 21.7979C66.3131 20.4108 64.5138 19.6602 62.625 19.6602V31.6602C62.0323 31.6602 61.3533 31.5508 60.662 31.2579C59.9695 30.9645 59.4108 30.5486 58.9881 30.1083L67.6447 21.7979ZM62.625 19.6602H58.8867V31.6602H62.625V19.6602ZM58.8867 19.6602C59.5082 19.6602 60.1856 19.7785 60.8555 20.0624C61.5209 20.3443 62.0466 20.7332 62.438 21.1245L53.9527 29.6098C55.2232 30.8803 56.9604 31.6602 58.8867 31.6602V19.6602ZM62.438 21.1245C62.8293 21.5159 63.2182 22.0416 63.5001 22.707C63.784 23.3769 63.9023 24.0543 63.9023 24.6758H51.9023C51.9023 26.6021 52.6822 28.3393 53.9527 29.6098L62.438 21.1245ZM63.9023 24.6758C63.9023 25.2372 63.8033 25.8879 63.5304 26.5586C63.2561 27.233 62.861 27.7923 62.4262 28.227L53.941 19.7417C52.5896 21.0931 51.9023 22.8666 51.9023 24.6758H63.9023ZM62.4262 28.227C62.0187 28.6345 61.4811 29.025 60.8136 29.3031C60.1448 29.5818 59.4806 29.6914 58.8867 29.6914V17.6914C57.0039 17.6914 55.2486 18.434 53.941 19.7417L62.4262 28.227ZM58.8867 29.6914H62.625V17.6914H58.8867V29.6914ZM62.625 29.6914C62.3147 29.6914 61.9057 29.6337 61.4653 29.452C61.024 29.27 60.6865 29.0194 60.4566 28.7895L68.9419 20.3042C67.237 18.5994 65.0156 17.6914 62.625 17.6914V29.6914ZM60.4855 28.8183C60.2607 28.5964 60.0224 28.2783 59.8467 27.87C59.672 27.4638 59.6118 27.0907 59.604 26.8143L71.5992 26.4748C71.533 24.1353 70.6166 21.9561 68.9129 20.2755L60.4855 28.8183ZM59.6049 26.8447L59.851 34.2158L71.8443 33.8154L71.5982 26.4443L59.6049 26.8447ZM59.8477 34.0156C59.8477 33.4217 59.9573 32.7576 60.236 32.0888C60.5141 31.4212 60.9046 30.8836 61.312 30.4761L69.7973 38.9614C71.105 37.6537 71.8477 35.8984 71.8477 34.0156H59.8477ZM61.3995 30.3904C61.8012 30.0047 62.3264 29.6356 62.9746 29.3719C63.6248 29.1074 64.274 29 64.8633 29V41C66.7108 41 68.4212 40.2842 69.7099 39.0471L61.3995 30.3904ZM64.8633 29C65.4005 29 66.0241 29.092 66.6704 29.3463C67.3209 29.6022 67.8694 29.9736 68.3036 30.3904L59.9932 39.0471C61.3531 40.3525 63.0998 41 64.8633 41V29ZM68.3911 30.4761C68.7986 30.8836 69.189 31.4212 69.4672 32.0888C69.7458 32.7576 69.8555 33.4217 69.8555 34.0156H57.8555C57.8555 35.8984 58.5981 37.6537 59.9058 38.9614L68.3911 30.4761ZM60.8006 28.8515L59.1366 29.8359L65.2462 40.1641L66.9103 39.1797L60.8006 28.8515ZM62.1914 29H58.8633V41H62.1914V29ZM58.8633 29C59.1615 29 59.5617 29.0552 59.9962 29.2339C60.4323 29.4131 60.7674 29.6611 60.9965 29.8902L52.5113 38.3755C54.2308 40.095 56.4669 41 58.8633 41V29ZM60.9965 29.8902C61.2256 30.1193 61.4736 30.4544 61.6529 30.8905C61.8315 31.325 61.8867 31.7253 61.8867 32.0234H49.8867C49.8867 34.4198 50.7917 36.6559 52.5113 38.3755L60.9965 29.8902ZM61.8867 32.0234V30.875H49.8867V32.0234H61.8867ZM61.8867 30.875C61.8867 31.1847 61.8288 31.5911 61.6484 32.0276C61.4678 32.4645 61.2202 32.7963 60.9965 33.02L52.5113 24.5347C50.8037 26.2423 49.8867 28.4694 49.8867 30.875H61.8867ZM60.9965 33.02C60.7844 33.2322 60.4616 33.4761 60.0284 33.6566C59.594 33.8376 59.1837 33.8984 58.8633 33.8984V21.8984C56.4336 21.8984 54.2096 22.8364 52.5113 24.5347L60.9965 33.02ZM69.7703 31.309L69.7117 30.4769L57.7414 31.3199L57.8 32.152L69.7703 31.309ZM69.7242 30.7318C69.6767 29.0205 69.0189 27.2954 67.6762 25.9527L59.191 34.438C58.7556 34.0026 58.3749 33.4576 58.109 32.8194C57.8457 32.1875 57.7432 31.5808 57.7289 31.065L69.7242 30.7318ZM67.6762 25.9527C66.3249 24.6013 64.5514 23.9141 62.7422 23.9141V35.9141C62.1808 35.9141 61.5301 35.815 60.8593 35.5421C60.1849 35.2678 59.6257 34.8727 59.191 34.438L67.6762 25.9527ZM62.7422 23.9141H58.8633V35.9141H62.7422V23.9141ZM58.8633 23.9141C56.9805 23.9141 55.2252 24.6567 53.9175 25.9644L62.4028 34.4497C61.9953 34.8572 61.4577 35.2476 60.7901 35.5258C60.1213 35.8044 59.4572 35.9141 58.8633 35.9141V23.9141ZM53.9175 25.9644C52.5661 27.3158 51.8789 29.0892 51.8789 30.8984H63.8789C63.8789 31.4598 63.7798 32.1106 63.507 32.7813C63.2327 33.4557 62.8375 34.0149 62.4028 34.4497L53.9175 25.9644ZM51.8789 30.8984V32H63.8789V30.8984H51.8789ZM51.8789 32C51.8789 33.9263 52.6587 35.6636 53.9292 36.934L62.4145 28.4488C62.8059 28.8401 63.1947 29.3658 63.4767 30.0312C63.7605 30.7011 63.8789 31.3785 63.8789 32H51.8789ZM53.9292 36.934C55.1997 38.2045 56.937 38.9844 58.8633 38.9844V26.9844C59.4848 26.9844 60.1621 27.1027 60.8321 27.3866C61.4974 27.6685 62.0231 28.0574 62.4145 28.4488L53.9292 36.934ZM58.8633 38.9844H61.6406V26.9844H58.8633V38.9844ZM64.6691 38.164L66.8137 36.9101L60.7567 26.5509L58.6121 27.8048L64.6691 38.164ZM72.4102 25.6602H78.4102V19.6602H72.4102V25.6602ZM70.6992 25.3789L66.4566 29.6215L66.4999 29.6648L66.544 29.7072L70.6992 25.3789ZM72.4336 23.6914V29.6914H78.4336V23.6914H72.4336ZM74.0977 20.5859L69.855 24.8286L69.8966 24.8702L69.939 24.9109L74.0977 20.5859ZM74.4023 23.6914H68.4023V29.6914H74.4023V23.6914ZM79.0547 25.3789L83.2099 29.7072L83.254 29.6648L83.2973 29.6215L79.0547 25.3789ZM74.3789 25.6602V19.6602H68.3789V25.6602H74.3789ZM74.6719 32.7383L70.4292 36.9809L70.4708 37.0225L70.5132 37.0633L74.6719 32.7383ZM78.3516 32.1875L84.0897 33.9408L84.093 33.9298L84.0964 33.9188L78.3516 32.1875ZM80.0508 31.625L75.6352 35.6873L75.7198 35.7793L75.8081 35.8676L80.0508 31.625ZM79.4883 34.1211L75.1326 29.9946L75.131 29.9962L79.4883 34.1211ZM77.3555 29H75.3867V41H77.3555V29ZM75.3867 29C75.7083 29 76.1156 29.0607 76.5452 29.2383C76.9733 29.4153 77.2927 29.6542 77.5031 29.8618L69.075 38.4038C70.7673 40.0735 72.9739 41 75.3867 41V29ZM77.5031 29.8618C77.7205 30.0763 77.9723 30.4046 78.1591 30.848C78.3466 31.293 78.4102 31.7151 78.4102 32.0469H66.4102C66.4102 34.4881 67.3632 36.7149 69.075 38.4038L77.5031 29.8618ZM78.4102 32.0469V25.6602H66.4102V32.0469H78.4102ZM72.4102 19.6602H71.4023V31.6602H72.4102V19.6602ZM71.4023 19.6602C71.965 19.6602 72.6013 19.7596 73.2498 20.019C73.8995 20.2788 74.4364 20.6493 74.8544 21.0506L66.544 29.7072C67.8691 30.9793 69.5972 31.6602 71.4023 31.6602V19.6602ZM74.9419 21.1363C75.3932 21.5876 75.7891 22.1591 76.0591 22.8342C76.3264 23.5022 76.418 24.1401 76.418 24.6758H64.418C64.418 26.4412 65.0703 28.2353 66.4566 29.6215L74.9419 21.1363ZM76.418 24.6758C76.418 25.2372 76.3189 25.8879 76.0461 26.5586C75.7717 27.233 75.3766 27.7923 74.9419 28.227L66.4566 19.7417C65.1052 21.0931 64.418 22.8666 64.418 24.6758H76.418ZM74.9419 28.227C74.5344 28.6345 73.9968 29.025 73.3292 29.3031C72.6604 29.5818 71.9962 29.6914 71.4023 29.6914V17.6914C69.5195 17.6914 67.7643 18.434 66.4566 19.7417L74.9419 28.227ZM71.4023 29.6914H72.4336V17.6914H71.4023V29.6914ZM78.4336 23.6914V21.2773H66.4336V23.6914H78.4336ZM78.4336 21.2773C78.4336 21.8387 78.3345 22.4895 78.0617 23.1602C77.7873 23.8346 77.3922 24.3938 76.9575 24.8286L68.4722 16.3433C67.1208 17.6947 66.4336 19.4681 66.4336 21.2773H78.4336ZM76.9575 24.8286C76.55 25.2361 76.0124 25.6265 75.3448 25.9047C74.676 26.1833 74.0119 26.293 73.418 26.293V14.293C71.5352 14.293 69.7799 15.0356 68.4722 16.3433L76.9575 24.8286ZM73.418 26.293C72.7676 26.293 72.0767 26.1651 71.4063 25.8762C70.7439 25.5907 70.2302 25.2037 69.855 24.8286L78.3403 16.3433C77.1087 15.1117 75.3885 14.293 73.418 14.293V26.293ZM69.939 24.9109C69.5436 24.5307 69.1358 24.0058 68.8357 23.3248C68.5322 22.6363 68.4023 21.9313 68.4023 21.2773H80.4023C80.4023 19.2719 79.5559 17.5106 78.2563 16.2609L69.939 24.9109ZM68.4023 21.2773V23.6914H80.4023V21.2773H68.4023ZM74.4023 29.6914H78.3633V17.6914H74.4023V29.6914ZM78.3633 29.6914C77.7418 29.6914 77.0644 29.573 76.3945 29.2892C75.7291 29.0072 75.2034 28.6184 74.812 28.227L83.2973 19.7417C82.0268 18.4712 80.2896 17.6914 78.3633 17.6914V29.6914ZM74.812 28.227C74.4207 27.8356 74.0318 27.3099 73.7499 26.6446C73.466 25.9746 73.3477 25.2973 73.3477 24.6758H85.3477C85.3477 22.7495 84.5678 21.0122 83.2973 19.7417L74.812 28.227ZM73.3477 24.6758C73.3477 24.0819 73.4573 23.4177 73.736 22.7489C74.0141 22.0814 74.4045 21.5438 74.812 21.1363L83.2973 29.6215C84.605 28.3139 85.3477 26.5586 85.3477 24.6758H73.3477ZM74.8995 21.0506C75.3012 20.6649 75.8264 20.2957 76.4746 20.0321C77.1248 19.7676 77.774 19.6602 78.3633 19.6602V31.6602C80.2108 31.6602 81.9212 30.9444 83.2099 29.7072L74.8995 21.0506ZM78.3633 19.6602H74.3789V31.6602H78.3633V19.6602ZM68.3789 25.6602V32.0469H80.3789V25.6602H68.3789ZM68.3789 32.0469C68.3789 33.9732 69.1587 35.7104 70.4292 36.9809L78.9145 28.4956C79.3059 28.887 79.6947 29.4127 79.9767 30.0781C80.2605 30.748 80.3789 31.4254 80.3789 32.0469H68.3789ZM70.5132 37.0633C71.7961 38.2968 73.5108 39.0312 75.3867 39.0312V27.0312C75.9815 27.0312 76.6314 27.1411 77.2783 27.4062C77.9218 27.6699 78.4387 28.0365 78.8305 28.4133L70.5132 37.0633ZM75.3867 39.0312H77.3086V27.0312H75.3867V39.0312ZM77.3086 39.0312C78.6989 39.0312 80.3177 38.6321 81.7356 37.485C83.0924 36.3874 83.7627 35.0108 84.0897 33.9408L72.6135 30.4342C72.7685 29.9267 73.1791 28.972 74.1882 28.1556C75.2585 27.2898 76.4418 27.0312 77.3086 27.0312V39.0312ZM84.0964 33.9188C83.9675 34.3464 83.6016 35.2707 82.6386 36.0977C81.5802 37.0067 80.3451 37.332 79.3477 37.332V25.332C77.858 25.332 76.2108 25.7999 74.8203 26.9941C73.5254 28.1063 72.9075 29.4583 72.6068 30.4562L84.0964 33.9188ZM79.3477 37.332C78.8091 37.332 78.1409 37.2389 77.4325 36.9437C76.7123 36.6436 76.1057 36.1988 75.6352 35.6873L84.4664 27.5627C83.0421 26.0146 81.1477 25.332 79.3477 25.332V37.332ZM75.8081 35.8676C75.3404 35.3999 74.9439 34.8162 74.6783 34.1411C74.4167 33.4762 74.332 32.8509 74.332 32.3398H86.332C86.332 30.6174 85.7131 28.8021 84.2934 27.3824L75.8081 35.8676ZM74.332 32.3398C74.332 30.8978 75.0429 30.0893 75.1326 29.9946L83.844 38.2476C85.0587 36.9654 86.332 34.9694 86.332 32.3398H74.332ZM75.131 29.9962C75.4066 29.7051 75.7869 29.4249 76.253 29.2328C76.7096 29.0447 77.1047 29 77.3555 29V41C79.7335 41 82.0665 40.1252 83.8455 38.246L75.131 29.9962ZM93.6094 33.8516L89.6025 29.3856L89.5921 29.3949L89.5817 29.4043L93.6094 33.8516ZM86.1562 33.8398L82.0623 38.2262L82.0736 38.2366L82.0848 38.2471L86.1562 33.8398ZM86.1211 24.8164L90.2558 29.1643L90.2569 29.1632L86.1211 24.8164ZM91.043 23.668V29.668H91.0961L91.1491 29.667L91.043 23.668ZM93.6094 24.7695L89.5817 29.2168L89.5921 29.2262L89.6025 29.2355L93.6094 24.7695ZM87.3047 32.1641L91.2094 27.6085L91.1573 27.5638L91.1041 27.5203L87.3047 32.1641ZM91.9336 32.6445L87.9639 28.1455L87.9554 28.153L91.9336 32.6445ZM92.5312 32.1172L88.8582 27.3728L88.7059 27.4907L88.5615 27.6182L92.5312 32.1172ZM92.5312 26.4805L88.7928 31.1734L88.8253 31.1993L88.8582 31.2248L92.5312 26.4805ZM91.8398 25.9297L87.9987 30.539L88.0496 30.5814L88.1014 30.6227L91.8398 25.9297ZM87.9492 25.9531L91.8605 30.503L91.8753 30.4904L91.8899 30.4776L87.9492 25.9531ZM87.2812 26.5273L91.1369 31.1245L91.1649 31.101L91.1926 31.0772L87.2812 26.5273ZM88.8633 27.2422V31.4023H100.863V27.2422H88.8633ZM88.8633 31.4023C88.8633 30.8554 89.0022 30.3466 89.209 29.9425C89.4007 29.5681 89.5925 29.3946 89.6025 29.3856L97.6162 38.3175C99.3517 36.7605 100.863 34.429 100.863 31.4023H88.8633ZM89.5817 29.4043C89.5559 29.4277 89.6698 29.3176 89.9378 29.2001C90.2247 29.0744 90.6075 28.9766 91.043 28.9766V40.9766C93.7789 40.9766 96.0092 39.7731 97.6371 38.2988L89.5817 29.4043ZM91.043 28.9766H88.7344V40.9766H91.043V28.9766ZM88.7344 28.9766C89.1565 28.9766 89.539 29.0711 89.8366 29.2023C90.1155 29.3253 90.2406 29.4446 90.2277 29.4326L82.0848 38.2471C83.732 39.7687 85.9827 40.9766 88.7344 40.9766V28.9766ZM90.2502 29.4535C90.2405 29.4445 90.4118 29.6002 90.5896 29.9524C90.7821 30.3337 90.9258 30.8374 90.9258 31.4023H78.9258C78.9258 34.3933 80.4173 36.6908 82.0623 38.2262L90.2502 29.4535ZM90.9258 31.4023V27.2422H78.9258V31.4023H90.9258ZM90.9258 27.2422C90.9258 27.7774 90.7935 28.2641 90.6067 28.6432C90.4331 28.9956 90.2608 29.1596 90.2558 29.1643L81.9864 20.4685C80.3503 22.0244 78.9258 24.3098 78.9258 27.2422H90.9258ZM90.2569 29.1632C90.2385 29.1807 90.0889 29.3175 89.7919 29.4481C89.4783 29.5859 89.1094 29.668 88.7344 29.668V17.668C85.9784 17.668 83.6856 18.8518 81.9853 20.4696L90.2569 29.1632ZM88.7344 29.668H91.043V17.668H88.7344V29.668ZM91.1491 29.667C90.6954 29.6751 90.2897 29.5781 89.9801 29.4452C89.6912 29.3212 89.5633 29.2001 89.5817 29.2168L97.6371 20.3223C95.9909 18.8315 93.7198 17.6197 90.9368 17.6689L91.1491 29.667ZM89.6025 29.2355C89.5833 29.2183 89.3891 29.0397 89.1985 28.6639C88.9937 28.2599 88.8633 27.7635 88.8633 27.2422H100.863C100.863 24.2298 99.3797 21.8857 97.6162 20.3035L89.6025 29.2355ZM80.918 27.3242V31.3086H92.918V27.3242H80.918ZM80.918 31.3086C80.918 33.3055 81.7338 35.3585 83.5053 36.8078L91.1041 27.5203C91.6439 27.962 92.141 28.5661 92.482 29.3205C92.817 30.0617 92.918 30.762 92.918 31.3086H80.918ZM83.3999 36.7196L84.1382 37.3524L91.9477 28.2413L91.2094 27.6085L83.3999 36.7196ZM84.1382 37.3524C85.7368 38.7226 87.5404 39.0078 88.7344 39.0078V27.0078C89.3346 27.0078 90.6773 27.1524 91.9477 28.2413L84.1382 37.3524ZM88.7344 39.0078H91.0195V27.0078H88.7344V39.0078ZM91.0195 39.0078C92.9541 39.0078 94.6448 38.2583 95.9118 37.1361L87.9554 28.153C88.2799 27.8656 88.7212 27.5649 89.284 27.3412C89.8543 27.1145 90.4477 27.0078 91.0195 27.0078V39.0078ZM95.9033 37.1436L96.501 36.6162L88.5615 27.6182L87.9639 28.1455L95.9033 37.1436ZM96.2043 36.8615C98.0701 35.417 98.8945 33.3178 98.8945 31.332H86.8945C86.8945 30.7725 86.998 30.0395 87.3583 29.2608C87.7267 28.4646 88.2673 27.8303 88.8582 27.3728L96.2043 36.8615ZM98.8945 31.332V27.3477H86.8945V31.332H98.8945ZM98.8945 27.3477C98.8945 25.6607 98.3065 23.3636 96.2043 21.7361L88.8582 31.2248C88.1402 30.6689 87.5998 29.9443 87.2697 29.1562C86.957 28.4097 86.8945 27.7587 86.8945 27.3477H98.8945ZM96.2697 21.7875L95.5783 21.2367L88.1014 30.6227L88.7928 31.1734L96.2697 21.7875ZM95.681 21.3204C94.3401 20.2029 92.6985 19.6367 91.0195 19.6367V31.6367C90.5407 31.6367 89.9997 31.56 89.441 31.3604C88.8803 31.1602 88.3955 30.8697 87.9987 30.539L95.681 21.3204ZM91.0195 19.6367H88.9805V31.6367H91.0195V19.6367ZM88.9805 19.6367C87.6455 19.6367 85.7015 19.9541 84.0085 21.4286L91.8899 30.4776C90.6813 31.5302 89.4248 31.6367 88.9805 31.6367V19.6367ZM84.0379 21.4032L83.3699 21.9774L91.1926 31.0772L91.8605 30.503L84.0379 21.4032ZM83.4256 21.9302C81.7658 23.3223 80.918 25.2997 80.918 27.3242H92.918C92.918 27.9121 92.8057 28.6275 92.4682 29.3678C92.1279 30.1142 91.6432 30.6999 91.1369 31.1245L83.4256 21.9302ZM108.586 24.3242L104.888 29.0492L104.909 29.066L104.931 29.0825L108.586 24.3242ZM109.09 26.2344L105.114 21.7404L105.071 21.7792L105.028 21.8188L109.09 26.2344ZM102.094 26.7969L99.5887 32.2489L99.6261 32.2661L99.6638 32.2828L102.094 26.7969ZM107.332 29.1172L104.902 34.6031L104.91 34.6067L107.332 29.1172ZM108.633 30.2539L103.583 33.4946L103.612 33.5386L103.641 33.5821L108.633 30.2539ZM108.246 34.1211L104.06 29.823L104.046 29.8367L104.032 29.8504L108.246 34.1211ZM100.312 34.3789L96.8498 39.2789L96.8651 39.2897L96.8804 39.3004L100.312 34.3789ZM99.7148 32.4922L95.3898 28.3335L95.3865 28.337L99.7148 32.4922ZM101.262 32.6094L97.0191 36.852L97.0481 36.8811L97.0776 36.9097L101.262 32.6094ZM106.898 32.7031L111.374 36.6992L111.409 36.6603L111.443 36.6208L106.898 32.7031ZM106.535 30.9688L104.072 36.4401L104.081 36.4438L104.089 36.4476L106.535 30.9688ZM101.25 28.5898L103.713 23.1185L103.704 23.1145L103.695 23.1105L101.25 28.5898ZM100.395 24.4648L96.0544 20.322L96.0378 20.3393L96.0214 20.3568L100.395 24.4648ZM102.211 29.6914H106.723V17.6914H102.211V29.6914ZM106.723 29.6914C106.465 29.6914 106.14 29.6512 105.786 29.5309C105.43 29.41 105.127 29.2359 104.888 29.0492L112.284 19.5992C110.659 18.3272 108.727 17.6914 106.723 17.6914V29.6914ZM104.931 29.0825C104.867 29.0331 104.536 28.7747 104.193 28.2566C103.822 27.6981 103.395 26.7643 103.395 25.543H115.395C115.395 22.2906 113.239 20.3327 112.241 19.5659L104.931 29.0825ZM103.395 25.543C103.395 24.948 103.505 24.2388 103.828 23.5072C104.153 22.7701 104.618 22.1798 105.114 21.7404L113.065 30.7284C114.609 29.3626 115.395 27.4705 115.395 25.543H103.395ZM105.028 21.8188C105.389 21.4863 105.877 21.1421 106.5 20.8864C107.131 20.627 107.792 20.5039 108.434 20.5039V32.5039C110.33 32.5039 111.965 31.7425 113.152 30.65L105.028 21.8188ZM108.434 20.5039C109.214 20.5039 109.971 20.6878 110.639 21.0172C111.282 21.3343 111.726 21.7271 112.001 22.0277L103.155 30.1364C104.278 31.3618 106.076 32.5039 108.434 32.5039V20.5039ZM112.001 22.0277C111.029 20.9669 109.269 19.6602 106.77 19.6602V31.6602C104.832 31.6602 103.612 30.6347 103.155 30.1364L112.001 22.0277ZM106.77 19.6602H102.316V31.6602H106.77V19.6602ZM102.316 19.6602C101.404 19.6602 99.6022 19.8296 97.967 21.202C96.1305 22.7434 95.6602 24.7997 95.6602 26.2109H107.66C107.66 27.255 107.299 29.0359 105.681 30.3937C104.265 31.5825 102.791 31.6602 102.316 31.6602V19.6602ZM95.6602 26.2109C95.6602 27.5413 96.0606 28.924 96.9455 30.1198C97.7771 31.2436 98.8006 31.8868 99.5887 32.2489L104.599 21.3448C105.098 21.5741 105.905 22.0533 106.592 22.9817C107.332 23.9822 107.66 25.1383 107.66 26.2109H95.6602ZM99.6638 32.2828L104.902 34.6031L109.762 23.6313L104.524 21.311L99.6638 32.2828ZM104.91 34.6067C104.626 34.4811 104.351 34.3082 104.108 34.0951C103.866 33.8843 103.696 33.6705 103.583 33.4946L113.682 27.0132C112.758 25.5724 111.44 24.3717 109.754 23.6277L104.91 34.6067ZM103.641 33.5821C103.493 33.3614 103.362 33.0943 103.271 32.7918C103.181 32.4903 103.148 32.2103 103.148 31.9766H115.148C115.148 30.1858 114.641 28.4489 113.625 26.9257L103.641 33.5821ZM103.148 31.9766C103.148 31.6701 103.207 31.2603 103.392 30.8185C103.579 30.3761 103.833 30.0436 104.06 29.823L112.433 38.4192C114.2 36.6978 115.148 34.4303 115.148 31.9766H103.148ZM104.032 29.8504C104.193 29.6911 104.481 29.4602 104.907 29.2753C105.345 29.0857 105.801 29 106.219 29V41C108.72 41 110.868 39.9633 112.461 38.3917L104.032 29.8504ZM106.219 29H102.234V41H106.219V29ZM102.234 29C102.504 29 102.795 29.0423 103.083 29.1355C103.369 29.2278 103.591 29.3503 103.745 29.4574L96.8804 39.3004C98.4245 40.3772 100.252 41 102.234 41V29ZM103.775 29.4789C103.801 29.4975 104.136 29.7299 104.504 30.2348C104.898 30.7769 105.434 31.788 105.434 33.1719H93.4336C93.4336 36.6717 95.9464 38.6405 96.8498 39.2789L103.775 29.4789ZM105.434 33.1719C105.434 33.789 105.317 34.4515 105.048 35.1027C104.781 35.7486 104.413 36.262 104.043 36.6474L95.3865 28.337C94.1858 29.5877 93.4336 31.2813 93.4336 33.1719H105.434ZM104.04 36.6508C103.581 37.1283 102.996 37.5426 102.307 37.8225C101.628 38.0983 100.987 38.1875 100.465 38.1875V26.1875C98.6754 26.1875 96.8146 26.8518 95.3898 28.3335L104.04 36.6508ZM100.465 38.1875C98.4017 38.1875 97.2216 37.0545 97.0191 36.852L105.504 28.3667C104.739 27.6017 103.028 26.1875 100.465 26.1875V38.1875ZM97.0776 36.9097C98.8223 38.6073 100.943 39.0312 102.504 39.0312V27.0312C102.987 27.0312 104.279 27.174 105.446 28.309L97.0776 36.9097ZM102.504 39.0312H106.172V27.0312H102.504V39.0312ZM106.172 39.0312C108.198 39.0312 110.059 38.1718 111.374 36.6992L102.423 28.707C102.825 28.2561 103.382 27.8057 104.101 27.481C104.822 27.1553 105.54 27.0312 106.172 27.0312V39.0312ZM111.443 36.6208C112.541 35.3464 113.191 33.7107 113.191 31.9297H101.191C101.191 31.3837 101.286 30.7972 101.507 30.2145C101.727 29.6347 102.033 29.1576 102.354 28.7855L111.443 36.6208ZM113.191 31.9297C113.191 30.684 112.869 29.271 111.982 27.9717C111.114 26.7008 109.976 25.9341 108.981 25.4899L104.089 36.4476C103.532 36.1988 102.722 35.6899 102.073 34.7392C101.404 33.7602 101.191 32.7301 101.191 31.9297H113.191ZM108.998 25.4974L103.713 23.1185L98.7873 34.0611L104.072 36.4401L108.998 25.4974ZM103.695 23.1105C104.159 23.3176 104.724 23.7297 105.14 24.3842L95.0162 30.8267C95.9795 32.3406 97.3254 33.4089 98.8054 34.0692L103.695 23.1105ZM105.14 24.3842C105.389 24.7754 105.668 25.44 105.668 26.293H93.668C93.668 28.0366 94.2203 29.5761 95.0162 30.8267L105.14 24.3842ZM105.668 26.293C105.668 26.6449 105.604 27.0744 105.425 27.5246C105.247 27.9741 105.001 28.3248 104.768 28.5729L96.0214 20.3568C94.4991 21.9773 93.668 24.053 93.668 26.293H105.668ZM104.735 28.6077C104.465 28.8899 104.076 29.189 103.568 29.4051C103.062 29.6209 102.584 29.6914 102.211 29.6914V17.6914C99.8679 17.6914 97.6894 18.6092 96.0544 20.322L104.735 28.6077ZM114.223 19.7305L110.067 15.4021L110.023 15.4445L109.98 15.4878L114.223 19.7305ZM115.617 19.7422L111.289 23.8974L111.374 23.9857L111.462 24.0705L115.617 19.7422ZM115.91 25.4023H109.91V36.4756L119.187 30.4287L115.91 25.4023ZM117.492 24.3711L114.292 19.2955L114.254 19.3198L114.216 19.3447L117.492 24.3711ZM122.707 24.5586L118.464 28.8012L118.479 28.8157L118.493 28.83L122.707 24.5586ZM123.609 26.6445L117.612 26.8159L117.612 26.8303L117.613 26.8447L123.609 26.6445ZM123.855 34.0156L129.853 33.8443L129.853 33.8298L129.852 33.8154L123.855 34.0156ZM123.574 34.7188L127.729 39.0471L127.774 39.0047L127.817 38.9614L123.574 34.7188ZM122.18 34.707L117.771 38.7767L117.811 38.8199L117.851 38.8622L122.18 34.707ZM121.887 34.0156L127.884 33.8339L127.884 33.825L127.883 33.8161L121.887 34.0156ZM121.641 26.6211L115.643 26.7975L115.644 26.8091L115.644 26.8207L121.641 26.6211ZM118.711 25.9297L121.99 30.9541L122 30.9482L122.009 30.9422L118.711 25.9297ZM115.91 27.7578L112.631 22.7334L109.91 24.5091V27.7578H115.91ZM114.223 34.7188L109.894 38.8739L109.979 38.9623L110.067 39.0471L114.223 34.7188ZM119.941 34.0156V20.4102H107.941V34.0156H119.941ZM119.941 20.4102C119.941 20.9984 119.834 21.6623 119.556 22.3351C119.277 23.0082 118.883 23.555 118.465 23.9731L109.98 15.4878C108.665 16.8027 107.941 18.5563 107.941 20.4102H119.941ZM118.378 24.0588C117.96 24.4601 117.423 24.8305 116.773 25.0904C116.125 25.3498 115.488 25.4492 114.926 25.4492V13.4492C113.121 13.4492 111.392 14.1301 110.067 15.4021L118.378 24.0588ZM114.926 25.4492C114.333 25.4492 113.654 25.3399 112.963 25.047C112.27 24.7535 111.712 24.3377 111.289 23.8974L119.946 15.587C118.614 14.1999 116.815 13.4492 114.926 13.4492V25.4492ZM111.462 24.0705C111.022 23.6478 110.606 23.0891 110.312 22.3966C110.02 21.7053 109.91 21.0263 109.91 20.4336H121.91C121.91 18.5448 121.159 16.7455 119.772 15.4139L111.462 24.0705ZM109.91 20.4336V25.4023H121.91V20.4336H109.91ZM119.187 30.4287L120.769 29.3975L114.216 19.3447L112.634 20.3759L119.187 30.4287ZM120.692 29.4466C120.764 29.4014 120.701 29.4512 120.512 29.518C120.32 29.5861 119.939 29.6914 119.414 29.6914V17.6914C117.28 17.6914 115.514 18.5254 114.292 19.2955L120.692 29.4466ZM119.414 29.6914H120.633V17.6914H119.414V29.6914ZM120.633 29.6914C120.3 29.6914 119.881 29.6279 119.441 29.4439C119.002 29.2607 118.677 29.0141 118.464 28.8012L126.95 20.316C125.267 18.6329 123.057 17.6914 120.633 17.6914V29.6914ZM118.493 28.83C118.274 28.6135 118.036 28.2988 117.859 27.89C117.683 27.4823 117.62 27.1034 117.612 26.8159L129.607 26.4732C129.54 24.1256 128.612 21.956 126.921 20.2872L118.493 28.83ZM117.613 26.8447L117.859 34.2158L129.852 33.8154L129.606 26.4443L117.613 26.8447ZM117.858 34.187C117.84 33.5724 117.937 32.8751 118.22 32.1681C118.502 31.4624 118.909 30.8985 119.332 30.4761L127.817 38.9614C129.167 37.6117 129.909 35.7859 129.853 33.8443L117.858 34.187ZM119.419 30.3904C119.837 29.9891 120.374 29.6187 121.024 29.3588C121.672 29.0994 122.308 29 122.871 29V41C124.676 41 126.404 40.3191 127.729 39.0471L119.419 30.3904ZM122.871 29C123.464 29 124.143 29.1093 124.834 29.4022C125.527 29.6957 126.085 30.1115 126.508 30.5518L117.851 38.8622C119.183 40.2493 120.982 41 122.871 41V29ZM126.589 30.6374C127.305 31.4139 127.845 32.5382 127.884 33.8339L115.889 34.1974C115.944 36.0087 116.679 37.5939 117.771 38.7767L126.589 30.6374ZM127.883 33.8161L127.637 26.4215L115.644 26.8207L115.89 34.2152L127.883 33.8161ZM127.638 26.4447C127.583 24.5841 126.809 22.9173 125.579 21.687L117.093 30.1723C116.717 29.7956 116.345 29.2959 116.068 28.6686C115.79 28.0372 115.661 27.3948 115.643 26.7975L127.638 26.4447ZM125.579 21.687C124.271 20.3794 122.516 19.6367 120.633 19.6367V31.6367C120.039 31.6367 119.375 31.5271 118.706 31.2484C118.038 30.9703 117.501 30.5798 117.093 30.1723L125.579 21.687ZM120.633 19.6367H119.531V31.6367H120.633V19.6367ZM119.531 19.6367C117.712 19.6367 116.295 20.3373 115.413 20.9172L122.009 30.9422C121.721 31.1314 120.85 31.6367 119.531 31.6367V19.6367ZM115.431 20.9053L112.631 22.7334L119.19 32.7822L121.99 30.9541L115.431 20.9053ZM109.91 27.7578V34.0156H121.91V27.7578H109.91ZM109.91 34.0156C109.91 33.4217 110.02 32.7576 110.298 32.0888C110.577 31.4212 110.967 30.8836 111.375 30.4761L119.86 38.9614C121.168 37.6537 121.91 35.8984 121.91 34.0156H109.91ZM111.375 30.4761C111.809 30.0414 112.369 29.6463 113.043 29.3719C113.714 29.0991 114.364 29 114.926 29V41C116.735 41 118.508 40.3128 119.86 38.9614L111.375 30.4761ZM114.926 29C115.488 29 116.125 29.0994 116.773 29.3588C117.423 29.6187 117.96 29.9891 118.378 30.3904L110.067 39.0471C111.392 40.3191 113.121 41 114.926 41V29ZM118.551 30.5636C118.952 30.9816 119.323 31.5185 119.583 32.1681C119.842 32.8167 119.941 33.453 119.941 34.0156H107.941C107.941 35.8208 108.622 37.5489 109.894 38.8739L118.551 30.5636ZM134.133 18.8516L129.804 23.0068L129.889 23.0951L129.978 23.1799L134.133 18.8516ZM134.133 21.1016L129.808 16.9429L129.804 16.9464L134.133 21.1016ZM131.672 21.0898L127.263 25.1595L127.305 25.2044L127.347 25.2485L131.672 21.0898ZM131.402 20.4102L137.399 20.5976L137.4 20.5849L137.4 20.5723L131.402 20.4102ZM131.426 19.543L137.424 19.7051L137.426 19.624V19.543H131.426ZM129.715 34.6953L125.387 38.8505L125.471 38.9388L125.56 39.0236L129.715 34.6953ZM129.715 33.3008L125.472 29.0581L125.429 29.1014L125.387 29.1456L129.715 33.3008ZM132.434 33.0078V39.0078H138.434V33.0078H132.434ZM132.434 25.6602H138.434V19.6602H132.434V25.6602ZM129.738 25.3672L125.41 29.5224L125.452 29.5665L125.496 29.6098L129.738 25.3672ZM129.738 23.9727L125.413 19.814L125.41 19.8175L129.738 23.9727ZM134.133 23.9727L129.724 28.0423L129.805 28.1305L129.89 28.2153L134.133 23.9727ZM134.426 33.0078H128.426V39.0078H134.426V33.0078ZM137.098 33.3008L132.855 37.5434L132.94 37.6282L133.028 37.7096L137.098 33.3008ZM137.109 34.6953L141.265 39.0236L141.309 38.9812L141.352 38.938L137.109 34.6953ZM132.41 24.5586H133.441V12.5586H132.41V24.5586ZM133.441 24.5586C132.849 24.5586 132.17 24.4492 131.478 24.1563C130.786 23.8629 130.227 23.4471 129.804 23.0068L138.461 14.6964C137.13 13.3093 135.33 12.5586 133.441 12.5586V24.5586ZM129.978 23.1799C129.537 22.7572 129.121 22.1985 128.828 21.5059C128.535 20.8147 128.426 20.1357 128.426 19.543H140.426C140.426 17.6541 139.675 15.8548 138.288 14.5232L129.978 23.1799ZM128.426 19.543V20.3867H140.426V19.543H128.426ZM128.426 20.3867C128.426 19.7919 128.536 19.142 128.801 18.4952C129.064 17.8516 129.431 17.3347 129.808 16.9429L138.458 25.2602C139.691 23.9773 140.426 22.2626 140.426 20.3867H128.426ZM129.804 16.9464C130.227 16.5061 130.786 16.0902 131.478 15.7968C132.17 15.5039 132.849 15.3945 133.441 15.3945V27.3945C135.33 27.3945 137.13 26.6438 138.461 25.2568L129.804 16.9464ZM133.441 15.3945H132.387V27.3945H133.441V15.3945ZM132.387 15.3945C132.985 15.3945 133.663 15.5062 134.35 15.7988C135.036 16.0913 135.585 16.5027 135.997 16.9312L127.347 25.2485C128.671 26.6255 130.47 27.3945 132.387 27.3945V15.3945ZM136.081 17.0202C136.421 17.3886 136.78 17.8975 137.041 18.5558C137.307 19.2254 137.42 19.9246 137.399 20.5976L125.405 20.2227C125.343 22.2173 126.131 23.9335 127.263 25.1595L136.081 17.0202ZM137.4 20.5723L137.424 19.7051L125.428 19.3809L125.405 20.2481L137.4 20.5723ZM137.426 19.543C137.426 20.1044 137.327 20.7551 137.054 21.4258C136.78 22.1002 136.384 22.6595 135.95 23.0942L127.464 14.6089C126.113 15.9603 125.426 17.7337 125.426 19.543H137.426ZM135.95 23.0942C135.542 23.5017 135.005 23.8921 134.337 24.1703C133.668 24.449 133.004 24.5586 132.41 24.5586V12.5586C130.527 12.5586 128.772 13.3012 127.464 14.6089L135.95 23.0942ZM136.418 28.9766H130.418V40.9766H136.418V28.9766ZM130.418 28.9766C130.981 28.9766 131.617 29.076 132.265 29.3354C132.915 29.5953 133.452 29.9657 133.87 30.367L125.56 39.0236C126.885 40.2957 128.613 40.9766 130.418 40.9766V28.9766ZM134.043 30.5401C134.444 30.9581 134.815 31.495 135.075 32.1447C135.334 32.7933 135.434 33.4295 135.434 33.9922H123.434C123.434 35.7973 124.114 37.5255 125.387 38.8505L134.043 30.5401ZM135.434 33.9922C135.434 34.5815 135.326 35.2307 135.062 35.8809C134.798 36.529 134.429 37.0542 134.043 37.456L125.387 29.1456C124.149 30.4343 123.434 32.1447 123.434 33.9922H135.434ZM133.957 37.5434C133.55 37.9509 133.012 38.3414 132.345 38.6195C131.676 38.8982 131.012 39.0078 130.418 39.0078V27.0078C128.535 27.0078 126.78 27.7505 125.472 29.0581L133.957 37.5434ZM130.418 39.0078H132.434V27.0078H130.418V39.0078ZM138.434 33.0078V25.6602H126.434V33.0078H138.434ZM132.434 19.6602H130.441V31.6602H132.434V19.6602ZM130.441 19.6602C131.035 19.6602 131.699 19.7698 132.368 20.0485C133.036 20.3266 133.573 20.717 133.981 21.1245L125.496 29.6098C126.803 30.9175 128.559 31.6602 130.441 31.6602V19.6602ZM134.067 21.212C134.452 21.6137 134.821 22.1389 135.085 22.7871C135.35 23.4373 135.457 24.0865 135.457 24.6758H123.457C123.457 26.5233 124.173 28.2337 125.41 29.5224L134.067 21.212ZM135.457 24.6758C135.457 25.2385 135.358 25.8747 135.098 26.5233C134.838 27.1729 134.468 27.7098 134.067 28.1278L125.41 19.8175C124.138 21.1425 123.457 22.8706 123.457 24.6758H135.457ZM134.063 28.1313C133.667 28.5433 133.13 28.9531 132.446 29.2495C131.758 29.5475 131.067 29.668 130.441 29.668V17.668C128.481 17.668 126.701 18.4749 125.413 19.814L134.063 28.1313ZM130.441 29.668H133.441V17.668H130.441V29.668ZM133.441 29.668C132.817 29.668 132.11 29.5478 131.4 29.2347C130.691 28.9222 130.134 28.4864 129.724 28.0423L138.542 19.903C137.232 18.4847 135.41 17.668 133.441 17.668V29.668ZM129.89 28.2153C129.483 27.8078 129.092 27.2702 128.814 26.6026C128.535 25.9338 128.426 25.2697 128.426 24.6758H140.426C140.426 22.793 139.683 21.0377 138.375 19.73L129.89 28.2153ZM128.426 24.6758V33.0078H140.426V24.6758H128.426ZM134.426 39.0078H136.395V27.0078H134.426V39.0078ZM136.395 39.0078C135.801 39.0078 135.136 38.8982 134.468 38.6195C133.8 38.3414 133.263 37.9509 132.855 37.5434L141.34 29.0581C140.033 27.7505 138.277 27.0078 136.395 27.0078V39.0078ZM133.028 37.7096C132.584 37.2997 132.148 36.7428 131.836 36.0338C131.523 35.3233 131.402 34.6164 131.402 33.9922H143.402C143.402 32.0234 142.586 30.2011 141.167 28.892L133.028 37.7096ZM131.402 33.9922C131.402 33.3983 131.512 32.7341 131.791 32.0654C132.069 31.3978 132.459 30.8602 132.867 30.4527L141.352 38.938C142.66 37.6303 143.402 35.875 143.402 33.9922H131.402ZM132.954 30.367C133.356 29.9813 133.881 29.6121 134.529 29.3485C135.179 29.084 135.829 28.9766 136.418 28.9766V40.9766C138.265 40.9766 139.976 40.2608 141.265 39.0236L132.954 30.367ZM160.125 28.2148L155.797 32.37L155.881 32.4584L155.97 32.5432L160.125 28.2148ZM164.121 32.7266L168.276 37.0549L168.28 37.0516L164.121 32.7266ZM164.707 19.7188L168.95 23.9614L168.993 23.9181L169.035 23.8739L164.707 19.7188ZM159.316 34.1211L155.045 38.3352L155.06 38.3495L155.074 38.3637L159.316 34.1211ZM164.449 32.0234V28.9062H152.449V32.0234H164.449ZM164.449 28.9062C164.449 29.4676 164.35 30.1184 164.077 30.7891C163.803 31.4635 163.408 32.0227 162.973 32.4575L154.488 23.9722C153.136 25.3236 152.449 27.097 152.449 28.9062H164.449ZM162.973 32.4575C162.566 32.865 162.028 33.2554 161.36 33.5336C160.692 33.8122 160.027 33.9219 159.434 33.9219V21.9219C157.551 21.9219 155.796 22.6645 154.488 23.9722L162.973 32.4575ZM159.434 33.9219C158.841 33.9219 158.162 33.8125 157.471 33.5196C156.778 33.2262 156.219 32.8103 155.797 32.37L164.453 24.0597C163.122 22.6726 161.322 21.9219 159.434 21.9219V33.9219ZM155.97 32.5432C155.53 32.1205 155.114 31.5617 154.82 30.8692C154.527 30.178 154.418 29.499 154.418 28.9062H166.418C166.418 27.0174 165.667 25.2181 164.28 23.8865L155.97 32.5432ZM154.418 28.9062V32.0469H166.418V28.9062H154.418ZM154.418 32.0469C154.418 33.9815 155.208 35.7606 156.556 37.0549L164.866 28.3982C165.289 28.8045 165.704 29.3507 166.001 30.041C166.3 30.7339 166.418 31.4263 166.418 32.0469H154.418ZM156.556 37.0549C157.916 38.3603 159.662 39.0078 161.426 39.0078V27.0078C161.963 27.0078 162.587 27.0998 163.233 27.3541C163.883 27.61 164.432 27.9814 164.866 28.3982L156.556 37.0549ZM161.426 39.0078H163.418V27.0078H161.426V39.0078ZM163.418 39.0078C165.223 39.0078 166.951 38.3269 168.276 37.0549L159.966 28.3982C160.384 27.9969 160.921 27.6265 161.57 27.3666C162.219 27.1072 162.855 27.0078 163.418 27.0078V39.0078ZM168.28 37.0516C169.619 35.7639 170.426 33.9843 170.426 32.0234H158.426C158.426 31.3981 158.546 30.7065 158.844 30.0187C159.141 29.3347 159.55 28.7977 159.962 28.4016L168.28 37.0516ZM170.426 32.0234V20.4102H158.426V32.0234H170.426ZM170.426 20.4102C170.426 20.9716 170.327 21.6223 170.054 22.293C169.78 22.9674 169.384 23.5266 168.95 23.9614L160.464 15.4761C159.113 16.8275 158.426 18.6009 158.426 20.4102H170.426ZM169.035 23.8739C168.629 24.2971 168.083 24.7114 167.393 25.009C166.7 25.3076 166.007 25.4258 165.387 25.4258V13.4258C163.452 13.4258 161.673 14.2153 160.379 15.5636L169.035 23.8739ZM165.387 25.4258C164.7 25.4258 163.983 25.2838 163.3 24.9764C162.629 24.6745 162.124 24.2735 161.768 23.904L170.412 15.5803C169.206 14.3278 167.459 13.4258 165.387 13.4258V25.4258ZM161.768 23.904C161.429 23.5522 161.069 23.0651 160.799 22.4317C160.524 21.7878 160.395 21.1117 160.395 20.457H172.395C172.395 18.474 171.571 16.7843 170.412 15.5803L161.768 23.904ZM160.395 20.457V32.0234H172.395V20.457H160.395ZM160.395 32.0234C160.395 31.6942 160.458 31.2663 160.652 30.8121C160.846 30.3588 161.108 30.0242 161.335 29.8067L169.65 38.4589C171.418 36.7591 172.395 34.498 172.395 32.0234H160.395ZM161.335 29.8067C161.508 29.6402 161.797 29.4195 162.208 29.2475C162.627 29.0726 163.048 29 163.418 29V41C165.861 41 168.014 40.0307 169.65 38.4589L161.335 29.8067ZM163.418 29H161.426V41H163.418V29ZM161.426 29C161.746 29 162.156 29.0608 162.591 29.2418C163.024 29.4223 163.347 29.6663 163.559 29.8785L155.074 38.3637C156.772 40.062 158.996 41 161.426 41V29ZM163.587 29.907C163.795 30.1174 164.034 30.4368 164.211 30.8649C164.388 31.2946 164.449 31.7019 164.449 32.0234H152.449C152.449 34.4363 153.376 36.6429 155.045 38.3352L163.587 29.907ZM172.02 19.4258V13.4258H166.02V19.4258H172.02ZM181.055 20.3047L176.784 24.5188L176.798 24.5331L176.812 24.5473L181.055 20.3047ZM181.066 25.6367L185.309 29.8794L185.323 29.8651L185.337 29.8508L181.066 25.6367ZM177.727 26.5039V20.5039H167.283L172.543 29.526L177.727 26.5039ZM181.758 33.418L176.575 36.4401L176.61 36.5018L176.648 36.5626L181.758 33.418ZM181.641 34.7188L185.71 39.1276L185.755 39.0861L185.799 39.0437L181.641 34.7188ZM180.059 34.4727L185.254 31.471L185.247 31.4589L180.059 34.4727ZM175.43 26.5039L180.618 23.4902L178.883 20.5039H175.43V26.5039ZM174.012 26.5039V20.5039H168.012V26.5039H174.012ZM173.707 34.7188L177.862 39.0471L177.866 39.0437L173.707 34.7188ZM172.301 34.7188L167.972 38.8739L168.057 38.9623L168.146 39.0471L172.301 34.7188ZM173.988 24.5352H167.988V30.5352H173.988V24.5352ZM179.672 21.7109L175.344 25.8661L175.428 25.9545L175.517 26.0393L179.672 21.7109ZM173.988 21.418V15.418H167.988V21.418H173.988ZM178.02 34.0156V19.4258H166.02V34.0156H178.02ZM172.02 25.4258H178.98V13.4258H172.02V25.4258ZM178.98 25.4258C178.637 25.4258 178.208 25.3593 177.762 25.17C177.318 24.9819 176.993 24.7307 176.784 24.5188L185.326 16.0906C183.649 14.3914 181.431 13.4258 178.98 13.4258V25.4258ZM176.812 24.5473C176.605 24.3405 176.362 24.0211 176.18 23.5872C175.997 23.151 175.934 22.7345 175.934 22.4023H187.934C187.934 19.9634 186.983 17.7481 185.297 16.062L176.812 24.5473ZM175.934 22.4023V23.5273H187.934V22.4023H175.934ZM175.934 23.5273C175.934 23.2173 175.992 22.8163 176.167 22.3885C176.343 21.9611 176.582 21.6384 176.795 21.4226L185.337 29.8508C187.019 28.1464 187.934 25.9311 187.934 23.5273H175.934ZM176.824 21.3941C177.042 21.1758 177.37 20.9287 177.808 20.7468C178.246 20.5646 178.659 20.5039 178.98 20.5039V32.5039C181.395 32.5039 183.614 31.5748 185.309 29.8794L176.824 21.3941ZM178.98 20.5039H177.727V32.5039H178.98V20.5039ZM172.543 29.526L176.575 36.4401L186.941 30.3958L182.91 23.4818L172.543 29.526ZM176.648 36.5626C176.294 35.987 175.945 35.1155 175.945 34.0273H187.945C187.945 32.5329 187.472 31.2552 186.868 30.2734L176.648 36.5626ZM175.945 34.0273C175.945 33.3734 176.075 32.6684 176.379 31.9799C176.679 31.2989 177.087 30.774 177.482 30.3938L185.799 39.0437C187.099 37.7941 187.945 36.0328 187.945 34.0273H175.945ZM177.571 30.3099C177.94 29.9693 178.433 29.6248 179.055 29.3719C179.683 29.1162 180.332 29 180.949 29V41C182.83 41 184.486 40.2574 185.71 39.1276L177.571 30.3099ZM180.949 29C181.684 29 182.596 29.1757 183.491 29.7053C184.374 30.2283 184.932 30.9132 185.254 31.471L174.863 37.4743C176.087 39.5913 178.314 41 180.949 41V29ZM185.247 31.4589L180.618 23.4902L170.241 29.5176L174.87 37.4864L185.247 31.4589ZM175.43 20.5039H174.012V32.5039H175.43V20.5039ZM168.012 26.5039V34.0156H180.012V26.5039H168.012ZM168.012 34.0156C168.012 33.3903 168.132 32.6987 168.43 32.0108C168.727 31.3269 169.136 30.7899 169.548 30.3938L177.866 39.0437C179.205 37.7561 180.012 35.9764 180.012 34.0156H168.012ZM169.552 30.3904C169.97 29.9891 170.507 29.6187 171.156 29.3588C171.805 29.0994 172.441 29 173.004 29V41C174.809 41 176.537 40.3191 177.862 39.0471L169.552 30.3904ZM173.004 29C173.567 29 174.203 29.0994 174.851 29.3588C175.501 29.6187 176.038 29.9891 176.456 30.3904L168.146 39.0471C169.471 40.3191 171.199 41 173.004 41V29ZM176.629 30.5636C177.03 30.9816 177.401 31.5185 177.661 32.1681C177.92 32.8167 178.02 33.453 178.02 34.0156H166.02C166.02 35.8208 166.7 37.5489 167.972 38.8739L176.629 30.5636ZM173.988 30.5352H178.98V18.5352H173.988V30.5352ZM178.98 30.5352C180.79 30.5352 182.563 29.8479 183.915 28.4965L175.429 20.0113C175.864 19.5765 176.423 19.1814 177.098 18.9071C177.768 18.6342 178.419 18.5352 178.98 18.5352V30.5352ZM183.915 28.4965C185.222 27.1889 185.965 25.4336 185.965 23.5508H173.965C173.965 22.9569 174.074 22.2927 174.353 21.6239C174.631 20.9564 175.022 20.4188 175.429 20.0113L183.915 28.4965ZM185.965 23.5508V22.4023H173.965V23.5508H185.965ZM185.965 22.4023C185.965 20.5135 185.214 18.7142 183.827 17.3826L175.517 26.0393C175.076 25.6166 174.661 25.0578 174.367 24.3653C174.074 23.6741 173.965 22.9951 173.965 22.4023H185.965ZM184 17.5557C182.669 16.1687 180.869 15.418 178.98 15.418V27.418C178.388 27.418 177.709 27.3086 177.018 27.0157C176.325 26.7223 175.766 26.3064 175.344 25.8661L184 17.5557ZM178.98 15.418H173.988V27.418H178.98V15.418ZM167.988 21.418V24.5352H179.988V21.418H167.988ZM193.125 29.082L188.882 33.3247L188.926 33.368L188.97 33.4104L193.125 29.082ZM193.125 32.1641L188.8 28.0054L188.797 28.0089L193.125 32.1641ZM189.715 32.1641L185.387 36.3193L185.429 36.3634L185.472 36.4067L189.715 32.1641ZM189.727 29.082L193.882 33.4104L193.926 33.368L193.969 33.3247L189.727 29.082ZM190.441 34.7891H192.434V22.7891H190.441V34.7891ZM192.434 34.7891C191.812 34.7891 191.135 34.6707 190.465 34.3868C189.799 34.1049 189.274 33.716 188.882 33.3247L197.368 24.8394C196.097 23.5689 194.36 22.7891 192.434 22.7891V34.7891ZM188.97 33.4104C188.53 32.9877 188.114 32.4289 187.82 31.7364C187.527 31.0452 187.418 30.3661 187.418 29.7734H199.418C199.418 27.8846 198.667 26.0853 197.28 24.7537L188.97 33.4104ZM187.418 29.7734V31.4492H199.418V29.7734H187.418ZM187.418 31.4492C187.418 30.8544 187.528 30.2045 187.793 29.5577C188.057 28.9141 188.423 28.3972 188.8 28.0054L197.45 36.3227C198.684 35.0398 199.418 33.3251 199.418 31.4492H187.418ZM188.797 28.0089C189.219 27.5686 189.778 27.1527 190.471 26.8593C191.162 26.5664 191.841 26.457 192.434 26.457V38.457C194.322 38.457 196.122 37.7063 197.453 36.3193L188.797 28.0089ZM192.434 26.457H190.418V38.457H192.434V26.457ZM190.418 26.457C191.012 26.457 191.676 26.5667 192.345 26.8453C193.012 27.1235 193.55 27.5139 193.957 27.9214L185.472 36.4067C186.78 37.7144 188.535 38.457 190.418 38.457V26.457ZM194.043 28.0089C194.429 28.4106 194.798 28.9358 195.062 29.5839C195.326 30.2342 195.434 30.8834 195.434 31.4727H183.434C183.434 33.3202 184.149 35.0306 185.387 36.3193L194.043 28.0089ZM195.434 31.4727V29.7734H183.434V31.4727H195.434ZM195.434 29.7734C195.434 30.3661 195.324 31.0452 195.031 31.7364C194.738 32.4289 194.322 32.9877 193.882 33.4104L185.571 24.7537C184.184 26.0853 183.434 27.8846 183.434 29.7734H195.434ZM193.969 33.3247C193.546 33.7482 192.996 34.1399 192.327 34.4141C191.66 34.6875 191.009 34.7891 190.441 34.7891V22.7891C188.601 22.7891 186.827 23.496 185.484 24.8394L193.969 33.3247ZM210.316 19.9648L206.029 24.1626L206.051 24.1852L206.074 24.2075L210.316 19.9648ZM201.516 34.4258L197.229 38.6235L197.251 38.6461L197.273 38.6684L201.516 34.4258ZM208.934 33.0078V39.0078H214.934V33.0078H208.934ZM208.934 21.3945H214.934V15.3945H208.934V21.3945ZM202.934 21.3945V15.3945H196.934V21.3945H202.934ZM202.934 33.0078H196.934V39.0078H202.934V33.0078ZM206.965 33.0781V21.3008H194.965V33.0781H206.965ZM206.965 21.3008C206.965 21.7882 206.872 22.3455 206.635 22.9084C206.4 23.468 206.078 23.8999 205.77 24.2075L197.285 15.7222C195.82 17.1865 194.965 19.1438 194.965 21.3008H206.965ZM205.77 24.2075C205.462 24.5151 205.03 24.8372 204.471 25.0728C203.908 25.3098 203.351 25.4023 202.863 25.4023V13.4023C200.706 13.4023 198.749 14.2579 197.285 15.7222L205.77 24.2075ZM202.863 25.4023H209.004V13.4023H202.863V25.4023ZM209.004 25.4023C208.5 25.4023 207.927 25.3052 207.349 25.0578C206.776 24.8122 206.338 24.478 206.029 24.1626L214.603 15.7671C213.15 14.2828 211.185 13.4023 209.004 13.4023V25.4023ZM206.074 24.2075C205.766 23.8999 205.444 23.468 205.208 22.9084C204.971 22.3455 204.879 21.7882 204.879 21.3008H216.879C216.879 19.1438 216.023 17.1865 214.559 15.7222L206.074 24.2075ZM204.879 21.3008V33.0781H216.879V21.3008H204.879ZM204.879 33.0781C204.879 32.6068 204.967 32.0578 205.201 31.4965C205.435 30.9368 205.758 30.4991 206.074 30.1831L214.559 38.6684C216.043 37.1848 216.879 35.2162 216.879 33.0781H204.879ZM206.074 30.1831C206.406 29.8513 206.856 29.5245 207.42 29.2918C207.984 29.0595 208.526 28.9766 208.98 28.9766V40.9766C211.081 40.9766 213.057 40.1709 214.559 38.6684L206.074 30.1831ZM208.98 28.9766H202.863V40.9766H208.98V28.9766ZM202.863 28.9766C203.302 28.9766 203.836 29.0554 204.398 29.2848C204.962 29.5154 205.418 29.8428 205.758 30.1831L197.273 38.6684C198.794 40.1896 200.782 40.9766 202.863 40.9766V28.9766ZM205.803 30.228C206.118 30.5496 206.432 30.9871 206.657 31.5377C206.882 32.0887 206.965 32.6232 206.965 33.0781H194.965C194.965 35.1757 195.767 37.1305 197.229 38.6235L205.803 30.228ZM214.934 33.0078V21.3945H202.934V33.0078H214.934ZM208.934 15.3945H202.934V27.3945H208.934V15.3945ZM196.934 21.3945V33.0078H208.934V21.3945H196.934ZM202.934 39.0078H208.934V27.0078H202.934V39.0078ZM222.141 29.082L217.898 33.3247L217.941 33.368L217.985 33.4104L222.141 29.082ZM222.141 32.1641L217.816 28.0054L217.812 28.0089L222.141 32.1641ZM218.73 32.1641L214.402 36.3193L214.445 36.3634L214.488 36.4067L218.73 32.1641ZM218.742 29.082L222.897 33.4104L222.942 33.368L222.985 33.3247L218.742 29.082ZM219.457 34.7891H221.449V22.7891H219.457V34.7891ZM221.449 34.7891C220.828 34.7891 220.15 34.6707 219.48 34.3868C218.815 34.1049 218.289 33.716 217.898 33.3247L226.383 24.8394C225.113 23.5689 223.376 22.7891 221.449 22.7891V34.7891ZM217.985 33.4104C217.545 32.9877 217.129 32.4289 216.836 31.7364C216.543 31.0452 216.434 30.3661 216.434 29.7734H228.434C228.434 27.8846 227.683 26.0853 226.296 24.7537L217.985 33.4104ZM216.434 29.7734V31.4492H228.434V29.7734H216.434ZM216.434 31.4492C216.434 30.8544 216.543 30.2045 216.809 29.5577C217.072 28.9141 217.439 28.3972 217.816 28.0054L226.466 36.3227C227.699 35.0398 228.434 33.3251 228.434 31.4492H216.434ZM217.812 28.0089C218.235 27.5686 218.794 27.1527 219.486 26.8593C220.178 26.5664 220.857 26.457 221.449 26.457V38.457C223.338 38.457 225.137 37.7063 226.469 36.3193L217.812 28.0089ZM221.449 26.457H219.434V38.457H221.449V26.457ZM219.434 26.457C220.027 26.457 220.692 26.5667 221.36 26.8453C222.028 27.1235 222.566 27.5139 222.973 27.9214L214.488 36.4067C215.796 37.7144 217.551 38.457 219.434 38.457V26.457ZM223.059 28.0089C223.444 28.4106 223.814 28.9358 224.077 29.5839C224.342 30.2342 224.449 30.8834 224.449 31.4727H212.449C212.449 33.3202 213.165 35.0306 214.402 36.3193L223.059 28.0089ZM224.449 31.4727V29.7734H212.449V31.4727H224.449ZM224.449 29.7734C224.449 30.3661 224.34 31.0452 224.047 31.7364C223.754 32.4289 223.338 32.9877 222.897 33.4104L214.587 24.7537C213.2 26.0853 212.449 27.8846 212.449 29.7734H224.449ZM222.985 33.3247C222.561 33.7482 222.012 34.1399 221.343 34.4141C220.676 34.6875 220.024 34.7891 219.457 34.7891V22.7891C217.617 22.7891 215.843 23.496 214.5 24.8394L222.985 33.3247ZM239.332 19.9648L235.045 24.1626L235.067 24.1852L235.089 24.2075L239.332 19.9648ZM230.531 34.4258L226.244 38.6235L226.266 38.6461L226.289 38.6684L230.531 34.4258ZM237.949 33.0078V39.0078H243.949V33.0078H237.949ZM237.949 21.3945H243.949V15.3945H237.949V21.3945ZM231.949 21.3945V15.3945H225.949V21.3945H231.949ZM231.949 33.0078H225.949V39.0078H231.949V33.0078ZM235.98 33.0781V21.3008H223.98V33.0781H235.98ZM235.98 21.3008C235.98 21.7882 235.888 22.3455 235.651 22.9084C235.415 23.468 235.093 23.8999 234.786 24.2075L226.3 15.7222C224.836 17.1865 223.98 19.1438 223.98 21.3008H235.98ZM234.786 24.2075C234.478 24.5151 234.046 24.8372 233.487 25.0728C232.924 25.3098 232.366 25.4023 231.879 25.4023V13.4023C229.722 13.4023 227.765 14.2579 226.3 15.7222L234.786 24.2075ZM231.879 25.4023H238.02V13.4023H231.879V25.4023ZM238.02 25.4023C237.516 25.4023 236.942 25.3052 236.365 25.0578C235.792 24.8122 235.354 24.478 235.045 24.1626L243.619 15.7671C242.166 14.2828 240.2 13.4023 238.02 13.4023V25.4023ZM235.089 24.2075C234.782 23.8999 234.46 23.468 234.224 22.9084C233.987 22.3455 233.895 21.7882 233.895 21.3008H245.895C245.895 19.1438 245.039 17.1865 243.575 15.7222L235.089 24.2075ZM233.895 21.3008V33.0781H245.895V21.3008H233.895ZM233.895 33.0781C233.895 32.6068 233.983 32.0578 234.217 31.4965C234.451 30.9368 234.773 30.4991 235.089 30.1831L243.575 38.6684C245.058 37.1848 245.895 35.2162 245.895 33.0781H233.895ZM235.089 30.1831C235.421 29.8513 235.871 29.5245 236.436 29.2918C236.999 29.0595 237.542 28.9766 237.996 28.9766V40.9766C240.097 40.9766 242.072 40.1709 243.575 38.6684L235.089 30.1831ZM237.996 28.9766H231.879V40.9766H237.996V28.9766ZM231.879 28.9766C232.318 28.9766 232.852 29.0554 233.413 29.2848C233.978 29.5154 234.434 29.8428 234.774 30.1831L226.289 38.6684C227.81 40.1896 229.797 40.9766 231.879 40.9766V28.9766ZM234.818 30.228C235.133 30.5496 235.447 30.9871 235.672 31.5377C235.897 32.0887 235.98 32.6232 235.98 33.0781H223.98C223.98 35.1757 224.782 37.1305 226.244 38.6235L234.818 30.228ZM243.949 33.0078V21.3945H231.949V33.0078H243.949ZM237.949 15.3945H231.949V27.3945H237.949V15.3945ZM225.949 21.3945V33.0078H237.949V21.3945H225.949ZM231.949 39.0078H237.949V27.0078H231.949V39.0078ZM248.473 33.0078V39.0078H254.473V33.0078H248.473ZM248.473 21.3945H254.473V15.3945H248.473V21.3945ZM244.793 21.1133L240.465 25.2685L240.549 25.3568L240.638 25.4416L244.793 21.1133ZM250.441 19.4258H256.441V13.4258H250.441V19.4258ZM250.441 33.0078H244.441V39.0078H250.441V33.0078ZM252.41 33.0078V39.0078H258.41V33.0078H252.41ZM252.691 28.2148L248.449 23.9722L248.405 24.0155L248.363 24.0597L252.691 28.2148ZM254.086 28.2148L249.758 32.37L249.842 32.4584L249.931 32.5432L254.086 28.2148ZM244.746 34.6836L240.337 38.7533L240.419 38.8414L240.503 38.9262L244.746 34.6836ZM244.746 33.2891L240.591 28.9607L240.547 29.0031L240.503 29.0464L244.746 33.2891ZM245.449 39.0078H248.473V27.0078H245.449V39.0078ZM254.473 33.0078V21.3945H242.473V33.0078H254.473ZM248.473 15.3945H245.496V27.3945H248.473V15.3945ZM245.496 15.3945C246.059 15.3945 246.695 15.4939 247.344 15.7534C247.993 16.0132 248.53 16.3837 248.948 16.785L240.638 25.4416C241.963 26.7136 243.691 27.3945 245.496 27.3945V15.3945ZM249.121 16.9581C249.523 17.3761 249.893 17.913 250.153 18.5627C250.412 19.2112 250.512 19.8475 250.512 20.4102H238.512C238.512 22.2153 239.193 23.9434 240.465 25.2685L249.121 16.9581ZM250.512 20.4102C250.512 20.9716 250.413 21.6223 250.14 22.293C249.865 22.9674 249.47 23.5266 249.036 23.9614L240.55 15.4761C239.199 16.8275 238.512 18.6009 238.512 20.4102H250.512ZM249.036 23.9614C248.628 24.3689 248.09 24.7593 247.423 25.0375C246.754 25.3161 246.09 25.4258 245.496 25.4258V13.4258C243.613 13.4258 241.858 14.1684 240.55 15.4761L249.036 23.9614ZM245.496 25.4258H250.441V13.4258H245.496V25.4258ZM244.441 19.4258V33.0078H256.441V19.4258H244.441ZM250.441 39.0078H252.41V27.0078H250.441V39.0078ZM258.41 33.0078V28.9062H246.41V33.0078H258.41ZM258.41 28.9062C258.41 29.4955 258.303 30.1447 258.038 30.795C257.775 31.4431 257.405 31.9683 257.02 32.37L248.363 24.0597C247.126 25.3483 246.41 27.0587 246.41 28.9062H258.41ZM256.934 32.4575C256.527 32.865 255.989 33.2554 255.321 33.5336C254.653 33.8122 253.988 33.9219 253.395 33.9219V21.9219C251.512 21.9219 249.756 22.6645 248.449 23.9722L256.934 32.4575ZM253.395 33.9219C252.802 33.9219 252.123 33.8125 251.432 33.5196C250.739 33.2262 250.18 32.8103 249.758 32.37L258.414 24.0597C257.083 22.6726 255.283 21.9219 253.395 21.9219V33.9219ZM249.931 32.5432C249.49 32.1205 249.075 31.5617 248.781 30.8692C248.488 30.178 248.379 29.499 248.379 28.9062H260.379C260.379 27.0174 259.628 25.2181 258.241 23.8865L249.931 32.5432ZM248.379 28.9062V33.9922H260.379V28.9062H248.379ZM248.379 33.9922C248.379 33.3983 248.489 32.7341 248.767 32.0654C249.045 31.3978 249.436 30.8602 249.843 30.4527L258.329 38.938C259.636 37.6303 260.379 35.875 260.379 33.9922H248.379ZM249.843 30.4527C250.278 30.0179 250.837 29.6228 251.512 29.3485C252.182 29.0756 252.833 28.9766 253.395 28.9766V40.9766C255.204 40.9766 256.977 40.2893 258.329 38.938L249.843 30.4527ZM253.395 28.9766H245.449V40.9766H253.395V28.9766ZM245.449 28.9766C246.043 28.9766 246.707 29.0862 247.376 29.3649C248.044 29.643 248.581 30.0335 248.989 30.441L240.503 38.9262C241.811 40.2339 243.566 40.9766 245.449 40.9766V28.9766ZM249.155 30.6139C249.525 31.0148 249.872 31.53 250.119 32.1558C250.365 32.7827 250.465 33.4051 250.465 33.9688H238.465C238.465 35.7688 239.139 37.4553 240.337 38.7533L249.155 30.6139ZM250.465 33.9688C250.465 34.557 250.358 35.2209 250.079 35.8937C249.801 36.5667 249.407 37.1136 248.989 37.5317L240.503 29.0464C239.189 30.3613 238.465 32.1149 238.465 33.9688H250.465ZM248.901 37.6174C248.483 38.0187 247.946 38.3891 247.297 38.649C246.648 38.9084 246.012 39.0078 245.449 39.0078V27.0078C243.644 27.0078 241.916 27.6887 240.591 28.9607L248.901 37.6174Z" fill="black"/>
</g>
<defs>
<filter id="filter0_i_3108_324" x="39.3208" y="53.4541" width="321.745" height="364.352" filterUnits="userSpaceOnUse" color-interpolation-filters="sRGB">
<feFlood flood-opacity="0" result="BackgroundImageFix"/>
<feBlend mode="normal" in="SourceGraphic" in2="BackgroundImageFix" result="shape"/>
<feColorMatrix in="SourceAlpha" type="matrix" values="0 0 0 0 0 0 0 0 0 0 0 0 0 0 0 0 0 0 127 0" result="hardAlpha"/>
<feOffset dy="4"/>
<feGaussianBlur stdDeviation="2"/>
<feComposite in2="hardAlpha" operator="arithmetic" k2="-1" k3="1"/>
<feColorMatrix type="matrix" values="0 0 0 0 0 0 0 0 0 0 0 0 0 0 0 0 0 0 1 0"/>
<feBlend mode="normal" in2="shape" result="effect1_innerShadow_3108_324"/>
</filter>
<filter id="filter1_d_3108_324" x="28.3208" y="46.4541" width="343.745" height="382.352" filterUnits="userSpaceOnUse" color-interpolation-filters="sRGB">
<feFlood flood-opacity="0" result="BackgroundImageFix"/>
<feColorMatrix in="SourceAlpha" type="matrix" values="0 0 0 0 0 0 0 0 0 0 0 0 0 0 0 0 0 0 127 0" result="hardAlpha"/>
<feOffset dy="4"/>
<feGaussianBlur stdDeviation="5.5"/>
<feColorMatrix type="matrix" values="0 0 0 0 0.98 0 0 0 0 1 0 0 0 0 0 0 0 0 0.4 0"/>
<feBlend mode="normal" in2="BackgroundImageFix" result="effect1_dropShadow_3108_324"/>
<feBlend mode="normal" in="SourceGraphic" in2="effect1_dropShadow_3108_324" result="shape"/>
</filter>
<filter id="filter2_d_3108_324" x="35.3208" y="53.4541" width="329.745" height="368.352" filterUnits="userSpaceOnUse" color-interpolation-filters="sRGB">
<feFlood flood-opacity="0" result="BackgroundImageFix"/>
<feColorMatrix in="SourceAlpha" type="matrix" values="0 0 0 0 0 0 0 0 0 0 0 0 0 0 0 0 0 0 127 0" result="hardAlpha"/>
<feOffset dy="4"/>
<feGaussianBlur stdDeviation="2"/>
<feColorMatrix type="matrix" values="0 0 0 0 0 0 0 0 0 0 0 0 0 0 0 0 0 0 0.25 0"/>
<feBlend mode="normal" in2="BackgroundImageFix" result="effect1_dropShadow_3108_324"/>
<feBlend mode="normal" in="SourceGraphic" in2="effect1_dropShadow_3108_324" result="shape"/>
</filter>
<filter id="filter3_i_3108_324" x="41.4023" y="18.5586" width="212.977" height="20.4414" filterUnits="userSpaceOnUse" color-interpolation-filters="sRGB">
<feFlood flood-opacity="0" result="BackgroundImageFix"/>
<feBlend mode="normal" in="SourceGraphic" in2="BackgroundImageFix" result="shape"/>
<feColorMatrix in="SourceAlpha" type="matrix" values="0 0 0 0 0 0 0 0 0 0 0 0 0 0 0 0 0 0 127 0" result="hardAlpha"/>
<feOffset dy="4"/>
<feGaussianBlur stdDeviation="2"/>
<feComposite in2="hardAlpha" operator="arithmetic" k2="-1" k3="1"/>
<feColorMatrix type="matrix" values="0 0 0 0 0 0 0 0 0 0 0 0 0 0 0 0 0 0 1 0"/>
<feBlend mode="normal" in2="shape" result="effect1_innerShadow_3108_324"/>
</filter>
<linearGradient id="paint0_linear_3108_324" x1="31.2353" y1="0" x2="31.2353" y2="34.0749" gradientUnits="userSpaceOnUse">
<stop/>
<stop offset="0.392265" stop-color="#212121" stop-opacity="0.97"/>
<stop offset="0.734807" stop-color="#1D1D1D" stop-opacity="0.652841"/>
<stop offset="1"/>
</linearGradient>
<linearGradient id="paint1_linear_3108_324" x1="31.2353" y1="0" x2="31.2353" y2="34.0749" gradientUnits="userSpaceOnUse">
<stop/>
<stop offset="0.392265" stop-color="#212121" stop-opacity="0.97"/>
<stop offset="0.734807" stop-color="#1D1D1D" stop-opacity="0.652841"/>
<stop offset="1"/>
</linearGradient>
<linearGradient id="paint2_linear_3108_324" x1="31.2353" y1="0" x2="31.2353" y2="34.0749" gradientUnits="userSpaceOnUse">
<stop/>
<stop offset="0.392265" stop-color="#212121" stop-opacity="0.97"/>
<stop offset="0.734807" stop-color="#1D1D1D" stop-opacity="0.652841"/>
<stop offset="1"/>
</linearGradient>
<linearGradient id="paint3_linear_3108_324" x1="31.2353" y1="0" x2="31.2353" y2="34.0749" gradientUnits="userSpaceOnUse">
<stop/>
<stop offset="0.392265" stop-color="#212121" stop-opacity="0.97"/>
<stop offset="0.734807" stop-color="#1D1D1D" stop-opacity="0.652841"/>
<stop offset="1"/>
</linearGradient>
<linearGradient id="paint4_linear_3108_324" x1="199.306" y1="540.075" x2="199.306" y2="574.15" gradientUnits="userSpaceOnUse">
<stop/>
<stop offset="0.392265" stop-color="#212121" stop-opacity="0.97"/>
<stop offset="0.734807" stop-color="#1D1D1D" stop-opacity="0.652841"/>
<stop offset="1"/>
</linearGradient>
</defs>
</svg>
