<svg width="512" height="512" viewBox="0 0 512 512" fill="none" xmlns="http://www.w3.org/2000/svg">
<path d="M237.096 286.963V272.848C237.096 270.337 236.155 268.218 234.272 266.492C232.545 264.609 230.427 263.667 227.916 263.667H114.923C112.412 263.667 110.215 264.609 108.331 266.492C106.605 268.218 105.742 270.337 105.742 272.848V312.396C105.742 314.906 106.605 317.104 108.331 318.987C110.215 320.713 112.412 321.576 114.923 321.576H227.916C230.427 321.576 232.545 320.713 234.272 318.987C236.155 317.104 237.096 314.906 237.096 312.396V306.062H196.754V286.963H237.096Z" fill="var(--ci-primary-color, currentColor)"/>
<path d="M220.618 244.6H114.923C112.412 244.6 110.215 243.736 108.331 242.01C106.605 240.127 105.742 237.93 105.742 235.419V199.402C105.742 196.891 106.605 194.772 108.331 193.046C110.215 191.163 112.412 190.222 114.923 190.222H220.618C223.129 190.222 225.248 191.163 226.974 193.046C228.7 194.772 229.563 196.891 229.563 199.402V235.419C229.563 237.93 228.7 240.127 226.974 242.01C225.248 243.736 223.129 244.6 220.618 244.6Z" fill="var(--ci-primary-color, currentColor)"/>
<path fill-rule="evenodd" clip-rule="evenodd" d="M512 256C512 397.385 397.385 512 256 512C114.615 512 0 397.385 0 256C0 114.615 114.615 0 256 0C397.385 0 512 114.615 512 256ZM256.164 286.963H297.755L333.228 126.537L389.647 361.447L413.274 286.963H510.144L508.526 298.057L507.106 306.062H427.193L383.942 435.931L333.228 182.822L319.308 306.062H256.164V312.396C256.164 320.242 253.418 326.912 247.925 332.405C242.432 337.897 235.762 340.644 227.916 340.644H86.6743V171.154H220.618C228.465 171.154 235.135 173.9 240.627 179.393C246.12 184.886 248.866 191.556 248.866 199.402V235.419C248.866 237.616 248.553 239.813 247.925 242.01C247.454 244.05 246.748 246.012 245.806 247.895C249.259 253.074 251.848 257.546 253.575 261.313C255.301 265.08 256.164 268.924 256.164 272.848V286.963Z" fill="var(--ci-primary-color, currentColor)"/>
</svg>
