<svg width="512" height="512" viewBox="0 0 512 512" fill="none" xmlns="http://www.w3.org/2000/svg">
<g clip-path="url(#clip0_137_11)">
<path d="M512 512H0V0H512V512ZM48.7619 45.385V456.215H255.988L463.238 455.978V45.385H48.7619Z" fill="var(--ci-primary-color, currentColor)"/>
<path fill-rule="evenodd" clip-rule="evenodd" d="M213.687 425.775C307.551 449.141 402.446 391.929 425.798 298.236C449.093 204.486 391.972 109.304 298.05 86.2248C204.414 62.8589 109.577 120.071 86.225 213.764C62.8733 307.457 119.993 402.352 213.687 425.775ZM306.261 174.908C334.039 184.333 354.3 198.275 350.706 224.981C347.96 244.422 337.372 253.913 322.732 257.251C342.732 267.527 352.732 283.106 343.581 310.401C332.209 344.634 304.17 347.711 266.653 341.034L258.026 377.493L236.065 372.191L244.692 336.321C239.137 334.947 233.32 333.507 227.176 331.87L218.549 368.002L196.588 362.7L205.215 326.241C202.196 325.366 199.056 324.612 195.868 323.846C193.812 323.352 191.736 322.853 189.66 322.314L161.032 315.637L171.424 290.306C171.424 290.306 187.83 294.495 187.568 294.233C193.647 295.608 196.457 291.681 197.568 288.931L210.902 231.33C211.326 231.461 211.67 231.527 212.013 231.592C212.356 231.658 212.699 231.723 213.124 231.854C212.574 231.473 212.052 231.338 211.592 231.22C211.341 231.155 211.109 231.096 210.902 231.003L220.64 189.831C220.967 185.38 219.268 179.555 210.379 177.329C210.967 177.002 194.562 173.402 194.562 173.402L200.117 150.034L230.379 157.3C232.732 157.856 235.101 158.347 237.47 158.838C239.839 159.329 242.209 159.82 244.562 160.376L253.189 124.245L275.411 129.547L267.045 164.893C272.862 166.071 278.745 167.446 284.562 168.82L292.928 133.474L314.889 138.776L306.261 174.908ZM237.898 306.337C255.555 310.873 295.373 321.1 301.294 295.87C307.252 270.303 269.925 262.254 251.196 258.216C248.97 257.736 247.008 257.313 245.411 256.924L234.039 305.361C235.156 305.633 236.453 305.966 237.898 306.337ZM253.715 235.502C268.443 239.309 301.966 247.977 307.372 224.981C312.857 201.901 281.57 195.199 266.097 191.884C264.237 191.486 262.605 191.136 261.294 190.813L250.705 234.734C251.587 234.951 252.597 235.212 253.715 235.502Z" fill="var(--ci-primary-color, currentColor)"/>
</g>
<defs>
<clipPath id="clip0_137_11">
<rect width="512" height="512" fill="white"/>
</clipPath>
</defs>
</svg>
