<svg width="512" height="512" viewBox="0 0 512 512" fill="none" xmlns="http://www.w3.org/2000/svg">
<g clip-path="url(#clip0_138_6)">
<circle cx="256" cy="256" r="256" fill="var(--ci-primary-color, currentColor)"/>
<path d="M196.754 286.964H297.755L333.228 126.537L389.647 361.448L413.274 286.964H510.144L508.526 298.057L507.106 306.062H427.193L383.942 435.931L333.228 182.823L319.308 306.062H196.754V286.964Z" fill="white"/>
<path d="M86.6743 340.644V171.154H220.618C228.465 171.154 235.135 173.901 240.627 179.393C246.12 184.886 248.866 191.556 248.866 199.403V235.419C248.866 237.616 248.553 239.813 247.925 242.01C247.454 244.051 246.748 246.012 245.806 247.895C249.259 253.074 251.848 257.547 253.575 261.313C255.301 265.08 256.164 268.925 256.164 272.848V312.396C256.164 320.242 253.418 326.912 247.925 332.405C242.432 337.898 235.762 340.644 227.916 340.644H86.6743ZM114.923 321.576H227.916C230.427 321.576 232.545 320.713 234.272 318.987C236.155 317.104 237.096 314.907 237.096 312.396V272.848C237.096 270.337 236.155 268.219 234.272 266.492C232.545 264.609 230.427 263.667 227.916 263.667H114.923C112.412 263.667 110.215 264.609 108.331 266.492C106.605 268.219 105.742 270.337 105.742 272.848V312.396C105.742 314.907 106.605 317.104 108.331 318.987C110.215 320.713 112.412 321.576 114.923 321.576ZM114.923 244.6H220.618C223.129 244.6 225.248 243.737 226.974 242.01C228.7 240.127 229.563 237.93 229.563 235.419V199.403C229.563 196.892 228.7 194.773 226.974 193.047C225.248 191.163 223.129 190.222 220.618 190.222H114.923C112.412 190.222 110.215 191.163 108.331 193.047C106.605 194.773 105.742 196.892 105.742 199.403V235.419C105.742 237.93 106.605 240.127 108.331 242.01C110.215 243.737 112.412 244.6 114.923 244.6Z" fill="white"/>
</g>
<defs>
<clipPath id="clip0_138_6">
<rect width="512" height="512" fill="white"/>
</clipPath>
</defs>
</svg>
