<svg width="1024" height="1024" viewBox="0 0 1024 1024" fill="none" xmlns="http://www.w3.org/2000/svg">
<circle cx="512" cy="512" r="512" fill="black"/>
<path d="M393.508 573.928H595.509L666.456 253.074L779.294 722.895L826.547 573.928H1020.29L1017.05 596.114L1014.21 612.124H854.385L767.883 871.863L666.456 365.645L638.616 612.124H393.508V573.928Z" fill="#F0D800"/>
<path d="M173.352 681.288V342.309H441.239C456.933 342.309 470.272 347.801 481.258 358.787C492.243 369.772 497.736 383.112 497.736 398.805V470.838C497.736 475.232 497.108 479.627 495.853 484.021C494.911 488.101 493.499 492.024 491.615 495.791C498.521 506.149 503.699 515.094 507.152 522.627C510.605 530.16 512.331 537.849 512.331 545.696V624.791C512.331 640.485 506.838 653.824 495.853 664.81C484.867 675.795 471.528 681.288 455.834 681.288H173.352ZM229.848 643.153H455.834C460.856 643.153 465.093 641.426 468.546 637.974C472.312 634.207 474.196 629.813 474.196 624.791V545.696C474.196 540.674 472.312 536.437 468.546 532.984C465.093 529.218 460.856 527.335 455.834 527.335H229.848C224.826 527.335 220.432 529.218 216.666 532.984C213.213 536.437 211.487 540.674 211.487 545.696V624.791C211.487 629.813 213.213 634.207 216.666 637.974C220.432 641.426 224.826 643.153 229.848 643.153ZM229.848 489.2H441.239C446.261 489.2 450.499 487.473 453.951 484.021C457.404 480.254 459.13 475.86 459.13 470.838V398.805C459.13 393.783 457.404 389.546 453.951 386.093C450.499 382.327 446.261 380.444 441.239 380.444H229.848C224.826 380.444 220.432 382.327 216.666 386.093C213.213 389.546 211.487 393.783 211.487 398.805V470.838C211.487 475.86 213.213 480.254 216.666 484.021C220.432 487.473 224.826 489.2 229.848 489.2Z" fill="white"/>
</svg>
