<svg width="512" height="512" viewBox="0 0 512 512" fill="none" xmlns="http://www.w3.org/2000/svg">
<g clip-path="url(#clip0_137_11)">
<path fill-rule="evenodd" clip-rule="evenodd" d="M194.101 504.357C331.412 538.538 470.23 454.845 504.39 317.785C538.467 180.643 454.908 41.4053 317.514 7.64317C180.538 -26.5378 41.8036 57.1553 7.6434 194.214C-26.5168 331.274 57.0418 470.092 194.101 504.357ZM329.525 137.373C370.16 151.162 399.799 171.557 394.541 210.624C390.525 239.062 375.036 252.946 353.619 257.83C382.876 272.863 397.505 295.652 384.119 335.581C367.483 385.659 326.465 390.16 271.584 380.393L258.963 433.727L226.838 425.971L239.459 373.499C231.332 371.488 222.822 369.381 213.835 366.987L201.214 419.843L169.088 412.087L181.709 358.753C177.293 357.472 172.699 356.369 168.037 355.249C165.028 354.526 161.991 353.796 158.954 353.008L117.076 343.241L132.278 306.185C132.278 306.185 156.277 312.313 155.894 311.93C164.786 313.941 168.897 308.196 170.523 304.174L190.027 219.912C190.649 220.103 191.151 220.199 191.653 220.295C192.155 220.391 192.657 220.486 193.278 220.678C192.474 220.12 191.71 219.924 191.038 219.75C190.671 219.656 190.331 219.568 190.027 219.433L204.274 159.205C204.752 152.694 202.266 144.172 189.263 140.916C190.123 140.437 166.125 135.171 166.125 135.171L174.252 100.987L218.52 111.616C221.962 112.43 225.428 113.148 228.893 113.866C232.359 114.584 235.825 115.302 239.267 116.116L251.888 63.261L284.396 71.0169L272.158 122.723C280.667 124.447 289.272 126.458 297.782 128.468L310.02 76.762L342.145 84.518L329.525 137.373ZM229.52 329.636C255.35 336.271 313.597 351.231 322.258 314.324C330.975 276.923 276.37 265.149 248.972 259.241C245.717 258.54 242.846 257.92 240.51 257.351L223.874 328.208C225.509 328.606 227.406 329.093 229.52 329.636ZM252.657 226.014C274.202 231.584 323.241 244.264 331.15 210.624C339.173 176.861 293.406 167.057 270.771 162.208C268.05 161.625 265.663 161.114 263.744 160.641L248.255 224.891C249.544 225.209 251.021 225.591 252.657 226.014Z" fill="var(--ci-primary-color, currentColor)"/>
</g>
<defs>
<clipPath id="clip0_137_11">
<rect width="512" height="512" fill="white"/>
</clipPath>
</defs>
</svg>
